<?xml version="1.0" standalone="no"?>
<!DOCTYPE svg PUBLIC "-//W3C//DTD SVG 1.1//EN" 
"http://www.w3.org/Graphics/SVG/1.1/DTD/svg11.dtd"> 
<svg
  xmlns="http://www.w3.org/2000/svg"
  version="1.1"
  width="11.7in" height="8.267in" viewBox="0 0 117000 82670 "
>
  <title>SVG Picture created as DMX-Dessous.svg </title>
  <desc>Picture generated by wxSVG v0101 </desc>
  <g style="fill:black; stroke:black; stroke-width:1">
</g>
<g style="fill:#000000; fill-opacity:0.0; 
  stroke:#000000; stroke-linecap:round; stroke-linejoin:round; stroke-opacity:1.0; stroke-opacity:1.0; stroke-width:150" 
   transform="translate(0 0) scale(1 1)">
<path d="M37500 56000 L37000 55500" /> 
<path d="M39500 56000 L37500 56000" /> 
<path d="M40500 57000 L39500 56000" /> 
<path d="M40500 60000 L40500 57000" /> 
<path d="M41500 61000 L40500 60000" /> 
<path d="M55500 61000 L41500 61000" /> 
<path d="M56000 60500 L55500 61000" /> 
<path d="M57000 60500 L56000 60500" /> 
<path d="M58500 59000 L57000 60500" /> 
<path d="M58500 54500 L58500 59000" /> 
<path d="M36000 54500 L37000 55500" /> 
<path d="M36000 47000 L36000 54500" /> 
<path d="M37000 46000 L37000 39500" /> 
<path d="M36000 47000 L37000 46000" /> 
<path d="M52000 38500 L52000 48000" /> 
<path d="M50500 37000 L52000 38500" /> 
<path d="M39500 37000 L50500 37000" /> 
<path d="M37000 39500 L39500 37000" /> 
<path d="M37000 39500 L39500 37000" /> 
<path d="M52000 48000 L58500 54500" /> 
</g>
<g style="fill:#000000; fill-opacity:0.0; 
  stroke:#000000; stroke-linecap:round; stroke-linejoin:round; stroke-opacity:1.0; stroke-opacity:1.0; stroke-width:150" 
   transform="translate(0 0) scale(1 1)">
<ellipse cx="49000" cy="47500" rx="15508" ry="15508"  /> 
</g>
<g style="fill:#000000; fill-opacity:0.0; 
  stroke:#000000; stroke-linecap:round; stroke-linejoin:round; stroke-opacity:1.0; stroke-opacity:1.0; stroke-width:120" 
   transform="translate(0 0) scale(1 1)">
<path d="M48000 58500 L48000 58500" /> 
<path d="M48500 56500 L48500 55500" /> 
<path d="M50500 58500 L48500 56500" /> 
<path d="M48500 55500 L48000 55000" /> 
<path d="M47000 49000 L47500 49500" /> 
<path d="M48000 55000 L46500 55000" /> 
<path d="M46500 55000 L46000 54500" /> 
<path d="M46000 54500 L45500 54500" /> 
<path d="M45500 54500 L45000 54000" /> 
<path d="M48500 58500 L48500 59500" /> 
<path d="M48500 59500 L49000 60000" /> 
<path d="M45000 50000 L45000 51500" /> 
<path d="M47500 49500 L47500 50500" /> 
<path d="M45500 49500 L46000 49000" /> 
<path d="M49000 60000 L50000 60000" /> 
<path d="M45000 54000 L44500 54000" /> 
<path d="M44500 54000 L44000 53500" /> 
<path d="M44000 53500 L44000 52000" /> 
<path d="M44000 52000 L44500 51500" /> 
<path d="M45000 49500 L45000 50000" /> 
<path d="M50500 59500 L50500 58500" /> 
<path d="M44000 48000 L44000 48500" /> 
<path d="M44000 47000 L44000 44000" /> 
<path d="M44000 44000 L46000 42000" /> 
<path d="M47500 50500 L47000 51000" /> 
<path d="M47000 51000 L47000 51500" /> 
<path d="M45000 50000 L45500 49500" /> 
<path d="M44000 47000 L44000 48000" /> 
<path d="M44000 48500 L45000 49500" /> 
<path d="M44500 51500 L45000 51500" /> 
<path d="M50000 60000 L50500 59500" /> 
<path d="M47000 59000 L47000 58500" /> 
<path d="M48000 58000 L48500 58500" /> 
<path d="M47500 58000 L48000 58000" /> 
<path d="M47000 58500 L47500 58000" /> 
<path d="M46000 49000 L47000 49000" /> 
</g>
<g style="fill:#000000; fill-opacity:0.0; 
  stroke:#000000; stroke-linecap:round; stroke-linejoin:round; stroke-opacity:1.0; stroke-opacity:1.0; stroke-width:80" 
   transform="translate(0 0) scale(1 1)">
<path d="M48500 48500 L48500 53500" /> 
<path d="M50500 55500 L50500 56500" /> 
<path d="M50500 56500 L52000 58000" /> 
<path d="M48000 47000 L48000 48000" /> 
<path d="M48000 48000 L48500 48500" /> 
<path d="M52000 58000 L52000 59000" /> 
<path d="M48500 53500 L50500 55500" /> 
<path d="M47000 44000 L47000 45500" /> 
<path d="M47000 45500 L48000 46500" /> 
<path d="M48000 46500 L48000 47000" /> 
<path d="M53500 55500 L49500 51500" /> 
<path d="M49500 51500 L49500 49000" /> 
<path d="M53000 57000 L53500 56500" /> 
<path d="M53500 56500 L53500 55500" /> 
<path d="M49500 49000 L49000 48500" /> 
<path d="M49000 48500 L49000 47000" /> 
<path d="M53000 59000 L53000 57000" /> 
<path d="M46500 42500 L47500 42500" /> 
<path d="M47500 42500 L48000 43000" /> 
<path d="M48000 45500 L49000 46500" /> 
<path d="M49000 46500 L49000 47000" /> 
<path d="M46000 43000 L46500 42500" /> 
<path d="M48000 43000 L48000 45500" /> 
<path d="M42000 55000 L41000 54000" /> 
<path d="M40500 54000 L40000 53500" /> 
<path d="M43500 55000 L42000 55000" /> 
<path d="M44000 55500 L43500 55000" /> 
<path d="M41000 54000 L40500 54000" /> 
<path d="M40000 53500 L40000 50000" /> 
<path d="M44000 56000 L44000 55500" /> 
<path d="M43500 54500 L42000 54500" /> 
<path d="M41000 53500 L41000 50000" /> 
<path d="M42000 54500 L41000 53500" /> 
<path d="M45000 56000 L43500 54500" /> 
<path d="M50000 50000 L50000 50500" /> 
<path d="M54000 57000 L54000 59000" /> 
<path d="M54500 56500 L54000 57000" /> 
<path d="M54500 55000 L54500 56500" /> 
<path d="M50000 50500 L54500 55000" /> 
<path d="M41000 43000 L42000 42000" /> 
<path d="M41000 46000 L41000 43000" /> 
<path d="M45000 41500 L45500 41000" /> 
<path d="M45500 41000 L46500 41000" /> 
<path d="M47000 41500 L47000 42000" /> 
<path d="M45000 42000 L45000 41500" /> 
<path d="M40500 47500 L40500 46500" /> 
<path d="M40500 46500 L41000 46000" /> 
<path d="M42000 42000 L45000 42000" /> 
<path d="M38000 50000 L40500 47500" /> 
<path d="M46500 41000 L47000 41500" /> 
<path d="M42000 55500 L41000 54500" /> 
<path d="M39500 54500 L39000 54000" /> 
<path d="M39000 54000 L39000 50000" /> 
<path d="M42000 58500 L42000 55500" /> 
<path d="M41000 54500 L39500 54500" /> 
<path d="M45500 58500 L42000 58500" /> 
<path d="M46000 59000 L45500 58500" /> 
<path d="M47000 43000 L46500 43500" /> 
<path d="M47000 46500 L47000 47000" /> 
<path d="M46500 46000 L47000 46500" /> 
<path d="M46500 43500 L46500 46000" /> 
</g>
<g style="fill:#000000; fill-opacity:0.0; 
  stroke:#000000; stroke-linecap:round; stroke-linejoin:round; stroke-opacity:1.0; stroke-opacity:1.0; stroke-width:120" 
   transform="translate(0 0) scale(1 1)">
<path d="M45000 45000 L45000 45500" /> 
<path d="M48000 59500 L47500 60000" /> 
<path d="M45000 45500 L45500 46000" /> 
<path d="M47500 60000 L42000 60000" /> 
<path d="M44000 50500 L44000 50000" /> 
<path d="M41500 55500 L41000 55000" /> 
</g>
<g style="fill:#000000; fill-opacity:1.0; 
  stroke:#000000; stroke-linecap:round; stroke-linejoin:round; stroke-opacity:1.0; stroke-opacity:1.0; stroke-width:0" 
   transform="translate(0 0) scale(1 1)">
<ellipse cx="43000" cy="53000" rx="236" ry="236"  /> 
</g>
<g style="fill:#000000; fill-opacity:1.0; 
  stroke:#000000; stroke-linecap:round; stroke-linejoin:round; stroke-opacity:1.0; stroke-opacity:1.0; stroke-width:120" 
   transform="translate(0 0) scale(1 1)">
<path d="M43000 53000 L43000 51500" /> 
<path d="M46000 44000 L45000 45000" /> 
<path d="M38500 54500 L38500 53000" /> 
</g>
<g style="fill:#000000; fill-opacity:1.0; 
  stroke:#000000; stroke-linecap:round; stroke-linejoin:round; stroke-opacity:1.0; stroke-opacity:1.0; stroke-width:0" 
   transform="translate(0 0) scale(1 1)">
<ellipse cx="38500" cy="53000" rx="236" ry="236"  /> 
</g>
<g style="fill:#000000; fill-opacity:1.0; 
  stroke:#000000; stroke-linecap:round; stroke-linejoin:round; stroke-opacity:1.0; stroke-opacity:1.0; stroke-width:120" 
   transform="translate(0 0) scale(1 1)">
<path d="M43000 51500 L44000 50500" /> 
<path d="M46000 46500 L46000 47000" /> 
<path d="M45500 46000 L46000 46500" /> 
<path d="M41500 45500 L41500 46500" /> 
<path d="M48000 59000 L48000 59500" /> 
<path d="M43000 49000 L44000 50000" /> 
<path d="M41500 46500 L41500 48000" /> 
</g>
<g style="fill:#000000; fill-opacity:1.0; 
  stroke:#000000; stroke-linecap:round; stroke-linejoin:round; stroke-opacity:1.0; stroke-opacity:1.0; stroke-width:0" 
   transform="translate(0 0) scale(1 1)">
<ellipse cx="46000" cy="45500" rx="236" ry="236"  /> 
<ellipse cx="41500" cy="45500" rx="236" ry="236"  /> 
</g>
<g style="fill:#000000; fill-opacity:1.0; 
  stroke:#000000; stroke-linecap:round; stroke-linejoin:round; stroke-opacity:1.0; stroke-opacity:1.0; stroke-width:120" 
   transform="translate(0 0) scale(1 1)">
<path d="M41000 55000 L39000 55000" /> 
<path d="M45500 46000 L46000 45500" /> 
<path d="M41500 59500 L41500 55500" /> 
<path d="M42500 49000 L43000 49000" /> 
<path d="M41500 48000 L42500 49000" /> 
<path d="M39000 55000 L38500 54500" /> 
<path d="M42000 60000 L41500 59500" /> 
</g>
<g style="fill:#000000; fill-opacity:1.0; 
  stroke:#000000; stroke-linecap:round; stroke-linejoin:round; stroke-opacity:1.0; stroke-opacity:1.0; stroke-width:80" 
   transform="translate(0 0) scale(1 1)">
<path d="M43500 54000 L44500 55000" /> 
<path d="M42000 50000 L41500 50500" /> 
<path d="M49000 58000 L49000 59000" /> 
<path d="M45500 55500 L45500 56500" /> 
<path d="M45000 55000 L45500 55500" /> 
<path d="M42000 54000 L43500 54000" /> 
<path d="M48500 57500 L49000 58000" /> 
<path d="M45500 56500 L46500 57500" /> 
<path d="M41500 50500 L41500 53500" /> 
<path d="M46500 57500 L48500 57500" /> 
<path d="M41500 53500 L42000 54000" /> 
<path d="M44500 55000 L45000 55000" /> 
<path d="M42500 50500 L42000 51000" /> 
<path d="M43000 50000 L42500 50500" /> 
<path d="M42000 51000 L42000 53000" /> 
<path d="M46500 55500 L46500 56500" /> 
<path d="M48500 57000 L49500 58000" /> 
<path d="M49500 58000 L50000 58500" /> 
<path d="M46500 56500 L47000 57000" /> 
<path d="M45500 55000 L46000 55000" /> 
<path d="M46000 55000 L46500 55500" /> 
<path d="M42000 53000 L42500 53500" /> 
<path d="M42500 53500 L43500 53500" /> 
<path d="M50000 58500 L50000 59000" /> 
<path d="M43500 53500 L44500 54500" /> 
<path d="M44500 54500 L45000 54500" /> 
<path d="M45000 54500 L45500 55000" /> 
<path d="M47000 57000 L48500 57000" /> 
<path d="M48000 54500 L48500 55000" /> 
<path d="M49500 56500 L51000 58000" /> 
<path d="M49000 55000 L49500 55500" /> 
<path d="M48000 50000 L48000 54500" /> 
<path d="M48500 55000 L49000 55000" /> 
<path d="M49500 55500 L49500 56500" /> 
<path d="M51000 58000 L51000 59000" /> 
<path d="M49000 50000 L49000 52000" /> 
<path d="M49000 52000 L53000 56000" /> 
<path d="M55000 57000 L55500 56500" /> 
<path d="M50000 48500 L50000 47000" /> 
<path d="M55500 56500 L55500 55500" /> 
<path d="M55500 55500 L50500 50500" /> 
<path d="M55000 59000 L55000 57000" /> 
<path d="M50500 49000 L50000 48500" /> 
<path d="M50500 50500 L50500 49000" /> 
<path d="M51000 50000 L56500 55500" /> 
<path d="M56500 55500 L56500 56500" /> 
<path d="M56500 56500 L56000 57000" /> 
<path d="M56000 57000 L56000 59000" /> 
<path d="M45000 53500 L45000 52500" /> 
<path d="M45000 52500 L45500 52500" /> 
<path d="M46000 52000 L46000 50000" /> 
<path d="M45500 52500 L46000 52000" /> 
<path d="M47000 52500 L47000 53500" /> 
<path d="M47000 50000 L46500 50500" /> 
<path d="M46500 52000 L47000 52500" /> 
<path d="M46500 50500 L46500 52000" /> 
</g>
<g style="fill:#000000; fill-opacity:1.0; 
  stroke:#000000; stroke-linecap:round; stroke-linejoin:round; stroke-opacity:1.0; stroke-opacity:1.0; stroke-width:100" 
   transform="translate(0 0) scale(1 1)">
<path d="M48710 58552 L48710 58552" /> 
<path d="M48703 58555 L48710 58552" /> 
<path d="M48555 58702 L48703 58555" /> 
<path d="M48499 58835 L48555 58702" /> 
<path d="M48445 58703 L48499 58835" /> 
<path d="M48298 58555 L48445 58703" /> 
<path d="M48310 58500 L48298 58555" /> 
<path d="M48286 58381 L48310 58500" /> 
<path d="M48219 58281 L48286 58381" /> 
<path d="M48119 58214 L48219 58281" /> 
<path d="M48000 58190 L48119 58214" /> 
<path d="M47881 58214 L48000 58190" /> 
<path d="M47781 58281 L47881 58214" /> 
<path d="M47714 58381 L47781 58281" /> 
<path d="M47690 58500 L47714 58381" /> 
<path d="M47701 58556 L47690 58500" /> 
<path d="M47555 58702 L47701 58556" /> 
<path d="M47496 58842 L47555 58702" /> 
<path d="M47452 58733 L47496 58842" /> 
<path d="M47361 58710 L47452 58733" /> 
<path d="M47290 58781 L47361 58710" /> 
<path d="M47290 58639 L47290 58781" /> 
<path d="M47267 58548 L47290 58639" /> 
<path d="M47074 58481 L47267 58548" /> 
<path d="M46870 58492 L47074 58481" /> 
<path d="M46733 58548 L46870 58492" /> 
<path d="M46710 58639 L46733 58548" /> 
<path d="M47000 58929 L46710 58639" /> 
<path d="M47290 58639 L47000 58929" /> 
<path d="M47290 58781 L47290 58639" /> 
<path d="M47071 59000 L47290 58781" /> 
<path d="M47361 59290 L47071 59000" /> 
<path d="M47452 59267 L47361 59290" /> 
<path d="M47493 59148 L47452 59267" /> 
<path d="M47555 59297 L47493 59148" /> 
<path d="M47659 59402 L47555 59297" /> 
<path d="M47372 59690 L47659 59402" /> 
<path d="M47290 59690 L47372 59690" /> 
<path d="M47290 59361 L47290 59690" /> 
<path d="M47000 59071 L47290 59361" /> 
<path d="M46710 59361 L47000 59071" /> 
<path d="M46733 59452 L46710 59361" /> 
<path d="M46926 59519 L46733 59452" /> 
<path d="M47130 59508 L46926 59519" /> 
<path d="M47267 59452 L47130 59508" /> 
<path d="M47290 59361 L47267 59452" /> 
<path d="M47290 59690 L47290 59361" /> 
<path d="M42128 59690 L47290 59690" /> 
<path d="M41810 59372 L42128 59690" /> 
<path d="M41810 58715 L41810 59372" /> 
<path d="M41889 58768 L41810 58715" /> 
<path d="M42000 58790 L41889 58768" /> 
<path d="M42476 58790 L42000 58790" /> 
<path d="M42476 59324 L42476 58790" /> 
<path d="M42514 59416 L42476 59324" /> 
<path d="M42584 59486 L42514 59416" /> 
<path d="M42675 59524 L42584 59486" /> 
<path d="M42774 59524 L42675 59524" /> 
<path d="M43324 59524 L42774 59524" /> 
<path d="M43416 59486 L43324 59524" /> 
<path d="M43486 59416 L43416 59486" /> 
<path d="M43524 59325 L43486 59416" /> 
<path d="M43524 59226 L43524 59325" /> 
<path d="M43524 59222 L43524 59226" /> 
<path d="M43555 59297 L43524 59222" /> 
<path d="M43702 59445 L43555 59297" /> 
<path d="M43895 59525 L43702 59445" /> 
<path d="M44104 59525 L43895 59525" /> 
<path d="M44297 59445 L44104 59525" /> 
<path d="M44445 59298 L44297 59445" /> 
<path d="M44500 59164 L44445 59298" /> 
<path d="M44555 59297 L44500 59164" /> 
<path d="M44702 59445 L44555 59297" /> 
<path d="M44895 59525 L44702 59445" /> 
<path d="M45104 59525 L44895 59525" /> 
<path d="M45297 59445 L45104 59525" /> 
<path d="M45445 59298 L45297 59445" /> 
<path d="M45500 59164 L45445 59298" /> 
<path d="M45555 59297 L45500 59164" /> 
<path d="M45702 59445 L45555 59297" /> 
<path d="M45895 59525 L45702 59445" /> 
<path d="M46104 59525 L45895 59525" /> 
<path d="M46297 59445 L46104 59525" /> 
<path d="M46445 59298 L46297 59445" /> 
<path d="M46503 59157 L46445 59298" /> 
<path d="M46548 59267 L46503 59157" /> 
<path d="M46639 59290 L46548 59267" /> 
<path d="M46929 59000 L46639 59290" /> 
<path d="M46639 58710 L46929 59000" /> 
<path d="M46548 58733 L46639 58710" /> 
<path d="M46506 58851 L46548 58733" /> 
<path d="M46445 58703 L46506 58851" /> 
<path d="M46298 58555 L46445 58703" /> 
<path d="M46105 58475 L46298 58555" /> 
<path d="M45896 58475 L46105 58475" /> 
<path d="M45888 58478 L45896 58475" /> 
<path d="M45705 58295 L45888 58478" /> 
<path d="M45611 58232 L45705 58295" /> 
<path d="M45500 58210 L45611 58232" /> 
<path d="M42290 58210 L45500 58210" /> 
<path d="M42290 55500 L42290 58210" /> 
<path d="M42268 55389 L42290 55500" /> 
<path d="M42205 55295 L42268 55389" /> 
<path d="M42200 55290 L42205 55295" /> 
<path d="M43380 55290 L42200 55290" /> 
<path d="M43673 55583 L43380 55290" /> 
<path d="M43555 55702 L43673 55583" /> 
<path d="M43524 55776 L43555 55702" /> 
<path d="M43524 55676 L43524 55776" /> 
<path d="M43486 55584 L43524 55676" /> 
<path d="M43416 55514 L43486 55584" /> 
<path d="M43325 55476 L43416 55514" /> 
<path d="M43226 55476 L43325 55476" /> 
<path d="M42676 55476 L43226 55476" /> 
<path d="M42584 55514 L42676 55476" /> 
<path d="M42514 55584 L42584 55514" /> 
<path d="M42476 55675 L42514 55584" /> 
<path d="M42476 55774 L42476 55675" /> 
<path d="M42476 56324 L42476 55774" /> 
<path d="M42514 56416 L42476 56324" /> 
<path d="M42584 56486 L42514 56416" /> 
<path d="M42675 56524 L42584 56486" /> 
<path d="M42774 56524 L42675 56524" /> 
<path d="M43324 56524 L42774 56524" /> 
<path d="M43416 56486 L43324 56524" /> 
<path d="M43486 56416 L43416 56486" /> 
<path d="M43524 56325 L43486 56416" /> 
<path d="M43524 56226 L43524 56325" /> 
<path d="M43524 56222 L43524 56226" /> 
<path d="M43555 56297 L43524 56222" /> 
<path d="M43702 56445 L43555 56297" /> 
<path d="M43895 56525 L43702 56445" /> 
<path d="M44104 56525 L43895 56525" /> 
<path d="M44297 56445 L44104 56525" /> 
<path d="M44445 56298 L44297 56445" /> 
<path d="M44500 56164 L44445 56298" /> 
<path d="M44555 56297 L44500 56164" /> 
<path d="M44702 56445 L44555 56297" /> 
<path d="M44895 56525 L44702 56445" /> 
<path d="M45104 56525 L44895 56525" /> 
<path d="M45210 56481 L45104 56525" /> 
<path d="M45210 56500 L45210 56481" /> 
<path d="M45232 56611 L45210 56500" /> 
<path d="M45295 56705 L45232 56611" /> 
<path d="M46295 57705 L45295 56705" /> 
<path d="M46389 57768 L46295 57705" /> 
<path d="M46500 57790 L46389 57768" /> 
<path d="M48380 57790 L46500 57790" /> 
<path d="M48710 58120 L48380 57790" /> 
<path d="M48710 58552 L48710 58120" /> 
</g>
<g style="fill:#000000; fill-opacity:1.0; 
  stroke:#000000; stroke-linecap:round; stroke-linejoin:round; stroke-opacity:1.0; stroke-opacity:1.0; stroke-width:0" 
   transform="translate(0 0) scale(1 1)">
<polygon style="fill-rule:evenodd; " 
points="48445,58703
48298,58555
48310,58500
48286,58381
48219,58281
48119,58214
48000,58190
47881,58214
47781,58281
47714,58381
47690,58500
47701,58556
47555,58702
47496,58842
47452,58733
47361,58710
47290,58781
47290,58639
47267,58548
47074,58481
46870,58492
46733,58548
46710,58639
47000,58929
47290,58639
47290,58781
47071,59000
47361,59290
47452,59267
47493,59148
47555,59297
47659,59402
47372,59690
47290,59690
47290,59361
47000,59071
46710,59361
46733,59452
46926,59519
47130,59508
47267,59452
47290,59361
47290,59690
42128,59690
41810,59372
41810,58715
41889,58768
42000,58790
42476,58790
42476,59324
42514,59416
42584,59486
42675,59524
42774,59524
43324,59524
43416,59486
43486,59416
43524,59325
43524,59226
43524,59222
43555,59297
43702,59445
43895,59525
44104,59525
44297,59445
44445,59298
44500,59164
44555,59297
44702,59445
44895,59525
45104,59525
45297,59445
45445,59298
45500,59164
45555,59297
45702,59445
45895,59525
46104,59525
46297,59445
46445,59298
46503,59157
46548,59267
46639,59290
46929,59000
46639,58710
46548,58733
46506,58851
46445,58703
46298,58555
46105,58475
45896,58475
45888,58478
45705,58295
45611,58232
45500,58210
42290,58210
42290,55500
42268,55389
42205,55295
42200,55290
43380,55290
43673,55583
43555,55702
43524,55776
43524,55676
43486,55584
43416,55514
43325,55476
43226,55476
42676,55476
42584,55514
42514,55584
42476,55675
42476,55774
42476,56324
42514,56416
42584,56486
42675,56524
42774,56524
43324,56524
43416,56486
43486,56416
43524,56325
43524,56226
43524,56222
43555,56297
43702,56445
43895,56525
44104,56525
44297,56445
44445,56298
44500,56164
44555,56297
44702,56445
44895,56525
45104,56525
45210,56481
45210,56500
45232,56611
45295,56705
46295,57705
46389,57768
46500,57790
48380,57790
48710,58120
48710,58552
48710,58552
48703,58555
48555,58702
48499,58835
" /> 
</g>
<g style="fill:#000000; fill-opacity:1.0; 
  stroke:#000000; stroke-linecap:round; stroke-linejoin:round; stroke-opacity:1.0; stroke-opacity:1.0; stroke-width:100" 
   transform="translate(0 0) scale(1 1)">
<path d="M49065 55475 L49065 55475" /> 
<path d="M48896 55475 L49065 55475" /> 
<path d="M48703 55555 L48896 55475" /> 
<path d="M48555 55702 L48703 55555" /> 
<path d="M48499 55835 L48555 55702" /> 
<path d="M48445 55703 L48499 55835" /> 
<path d="M48298 55555 L48445 55703" /> 
<path d="M48105 55475 L48298 55555" /> 
<path d="M47896 55475 L48105 55475" /> 
<path d="M47703 55555 L47896 55475" /> 
<path d="M47555 55702 L47703 55555" /> 
<path d="M47499 55835 L47555 55702" /> 
<path d="M47445 55703 L47499 55835" /> 
<path d="M47298 55555 L47445 55703" /> 
<path d="M47105 55475 L47298 55555" /> 
<path d="M46896 55475 L47105 55475" /> 
<path d="M46790 55518 L46896 55475" /> 
<path d="M46790 55500 L46790 55518" /> 
<path d="M46768 55389 L46790 55500" /> 
<path d="M46705 55295 L46768 55389" /> 
<path d="M46205 54795 L46705 55295" /> 
<path d="M46111 54732 L46205 54795" /> 
<path d="M46000 54710 L46111 54732" /> 
<path d="M45620 54710 L46000 54710" /> 
<path d="M45205 54295 L45620 54710" /> 
<path d="M45111 54232 L45205 54295" /> 
<path d="M45000 54210 L45111 54232" /> 
<path d="M44620 54210 L45000 54210" /> 
<path d="M43705 53295 L44620 54210" /> 
<path d="M43611 53232 L43705 53295" /> 
<path d="M43500 53210 L43611 53232" /> 
<path d="M43439 53210 L43500 53210" /> 
<path d="M43486 53097 L43439 53210" /> 
<path d="M43486 52904 L43486 53097" /> 
<path d="M43412 52725 L43486 52904" /> 
<path d="M43310 52622 L43412 52725" /> 
<path d="M43310 51628 L43310 52622" /> 
<path d="M44219 50719 L43310 51628" /> 
<path d="M44286 50619 L44219 50719" /> 
<path d="M44286 50618 L44286 50619" /> 
<path d="M44310 50500 L44286 50618" /> 
<path d="M44310 50432 L44310 50500" /> 
<path d="M44445 50298 L44310 50432" /> 
<path d="M44503 50157 L44445 50298" /> 
<path d="M44548 50267 L44503 50157" /> 
<path d="M44639 50290 L44548 50267" /> 
<path d="M44929 50000 L44639 50290" /> 
<path d="M44639 49710 L44929 50000" /> 
<path d="M44548 49733 L44639 49710" /> 
<path d="M44506 49851 L44548 49733" /> 
<path d="M44445 49703 L44506 49851" /> 
<path d="M44298 49555 L44445 49703" /> 
<path d="M44290 49551 L44298 49555" /> 
<path d="M44290 47361 L44290 49551" /> 
<path d="M44000 47071 L44290 47361" /> 
<path d="M43710 47361 L44000 47071" /> 
<path d="M43733 47452 L43710 47361" /> 
<path d="M43926 47519 L43733 47452" /> 
<path d="M44130 47508 L43926 47519" /> 
<path d="M44267 47452 L44130 47508" /> 
<path d="M44290 47361 L44267 47452" /> 
<path d="M44290 49551 L44290 47361" /> 
<path d="M44105 49475 L44290 49551" /> 
<path d="M43913 49475 L44105 49475" /> 
<path d="M43219 48781 L43913 49475" /> 
<path d="M43119 48714 L43219 48781" /> 
<path d="M43000 48690 L43119 48714" /> 
<path d="M42628 48690 L43000 48690" /> 
<path d="M41810 47872 L42628 48690" /> 
<path d="M41810 47489 L41810 47872" /> 
<path d="M41895 47525 L41810 47489" /> 
<path d="M42104 47525 L41895 47525" /> 
<path d="M42297 47445 L42104 47525" /> 
<path d="M42445 47298 L42297 47445" /> 
<path d="M42500 47164 L42445 47298" /> 
<path d="M42555 47297 L42500 47164" /> 
<path d="M42702 47445 L42555 47297" /> 
<path d="M42895 47525 L42702 47445" /> 
<path d="M43104 47525 L42895 47525" /> 
<path d="M43297 47445 L43104 47525" /> 
<path d="M43445 47298 L43297 47445" /> 
<path d="M43503 47157 L43445 47298" /> 
<path d="M43548 47267 L43503 47157" /> 
<path d="M43639 47290 L43548 47267" /> 
<path d="M43929 47000 L43639 47290" /> 
<path d="M43639 46710 L43929 47000" /> 
<path d="M43548 46733 L43639 46710" /> 
<path d="M43506 46851 L43548 46733" /> 
<path d="M43445 46703 L43506 46851" /> 
<path d="M43298 46555 L43445 46703" /> 
<path d="M43105 46475 L43298 46555" /> 
<path d="M42896 46475 L43105 46475" /> 
<path d="M42703 46555 L42896 46475" /> 
<path d="M42555 46702 L42703 46555" /> 
<path d="M42499 46835 L42555 46702" /> 
<path d="M42445 46703 L42499 46835" /> 
<path d="M42298 46555 L42445 46703" /> 
<path d="M42105 46475 L42298 46555" /> 
<path d="M41896 46475 L42105 46475" /> 
<path d="M41810 46510 L41896 46475" /> 
<path d="M41810 46500 L41810 46510" /> 
<path d="M41810 45877 L41810 46500" /> 
<path d="M41912 45776 L41810 45877" /> 
<path d="M41986 45597 L41912 45776" /> 
<path d="M41986 45404 L41986 45597" /> 
<path d="M41912 45225 L41986 45404" /> 
<path d="M41776 45088 L41912 45225" /> 
<path d="M41597 45014 L41776 45088" /> 
<path d="M41404 45014 L41597 45014" /> 
<path d="M41290 45061 L41404 45014" /> 
<path d="M41290 43120 L41290 45061" /> 
<path d="M42120 42290 L41290 43120" /> 
<path d="M44552 42290 L42120 42290" /> 
<path d="M44555 42297 L44552 42290" /> 
<path d="M44702 42445 L44555 42297" /> 
<path d="M44895 42525 L44702 42445" /> 
<path d="M45104 42525 L44895 42525" /> 
<path d="M45297 42445 L45104 42525" /> 
<path d="M45445 42298 L45297 42445" /> 
<path d="M45490 42188 L45445 42298" /> 
<path d="M45528 42281 L45490 42188" /> 
<path d="M45622 42308 L45528 42281" /> 
<path d="M45929 42000 L45622 42308" /> 
<path d="M45622 41692 L45929 42000" /> 
<path d="M45528 41719 L45622 41692" /> 
<path d="M45492 41818 L45528 41719" /> 
<path d="M45445 41703 L45492 41818" /> 
<path d="M45326 41583 L45445 41703" /> 
<path d="M45620 41290 L45326 41583" /> 
<path d="M46380 41290 L45620 41290" /> 
<path d="M46657 41567 L46380 41290" /> 
<path d="M46535 41689 L46657 41567" /> 
<path d="M46497 41780 L46535 41689" /> 
<path d="M46472 41719 L46497 41780" /> 
<path d="M46378 41692 L46472 41719" /> 
<path d="M46308 41762 L46378 41692" /> 
<path d="M46308 41622 L46308 41762" /> 
<path d="M46281 41528 L46308 41622" /> 
<path d="M46079 41457 L46281 41528" /> 
<path d="M45866 41468 L46079 41457" /> 
<path d="M45719 41528 L45866 41468" /> 
<path d="M45692 41622 L45719 41528" /> 
<path d="M46000 41929 L45692 41622" /> 
<path d="M46308 41622 L46000 41929" /> 
<path d="M46308 41762 L46308 41622" /> 
<path d="M46071 42000 L46308 41762" /> 
<path d="M46000 42071 L46071 42000" /> 
<path d="M45692 42378 L46000 42071" /> 
<path d="M45719 42472 L45692 42378" /> 
<path d="M45784 42495 L45719 42472" /> 
<path d="M45689 42535 L45784 42495" /> 
<path d="M45535 42689 L45689 42535" /> 
<path d="M45451 42891 L45535 42689" /> 
<path d="M45451 43109 L45451 42891" /> 
<path d="M45535 43311 L45451 43109" /> 
<path d="M45689 43465 L45535 43311" /> 
<path d="M45773 43500 L45689 43465" /> 
<path d="M45689 43535 L45773 43500" /> 
<path d="M45535 43689 L45689 43535" /> 
<path d="M45451 43891 L45535 43689" /> 
<path d="M45451 44109 L45451 43891" /> 
<path d="M45451 44110 L45451 44109" /> 
<path d="M45087 44475 L45451 44110" /> 
<path d="M44896 44475 L45087 44475" /> 
<path d="M44703 44555 L44896 44475" /> 
<path d="M44555 44702 L44703 44555" /> 
<path d="M44475 44895 L44555 44702" /> 
<path d="M44475 45104 L44475 44895" /> 
<path d="M44555 45297 L44475 45104" /> 
<path d="M44690 45432 L44555 45297" /> 
<path d="M44690 45500 L44690 45432" /> 
<path d="M44714 45619 L44690 45500" /> 
<path d="M44781 45719 L44714 45619" /> 
<path d="M45281 46219 L44781 45719" /> 
<path d="M45659 46597 L45281 46219" /> 
<path d="M45555 46702 L45659 46597" /> 
<path d="M45499 46835 L45555 46702" /> 
<path d="M45445 46703 L45499 46835" /> 
<path d="M45298 46555 L45445 46703" /> 
<path d="M45105 46475 L45298 46555" /> 
<path d="M44896 46475 L45105 46475" /> 
<path d="M44703 46555 L44896 46475" /> 
<path d="M44555 46702 L44703 46555" /> 
<path d="M44496 46842 L44555 46702" /> 
<path d="M44452 46733 L44496 46842" /> 
<path d="M44361 46710 L44452 46733" /> 
<path d="M44290 46781 L44361 46710" /> 
<path d="M44290 46639 L44290 46781" /> 
<path d="M44267 46548 L44290 46639" /> 
<path d="M44074 46481 L44267 46548" /> 
<path d="M43870 46492 L44074 46481" /> 
<path d="M43733 46548 L43870 46492" /> 
<path d="M43710 46639 L43733 46548" /> 
<path d="M44000 46929 L43710 46639" /> 
<path d="M44290 46639 L44000 46929" /> 
<path d="M44290 46781 L44290 46639" /> 
<path d="M44071 47000 L44290 46781" /> 
<path d="M44361 47290 L44071 47000" /> 
<path d="M44452 47267 L44361 47290" /> 
<path d="M44493 47148 L44452 47267" /> 
<path d="M44555 47297 L44493 47148" /> 
<path d="M44702 47445 L44555 47297" /> 
<path d="M44895 47525 L44702 47445" /> 
<path d="M45104 47525 L44895 47525" /> 
<path d="M45297 47445 L45104 47525" /> 
<path d="M45445 47298 L45297 47445" /> 
<path d="M45500 47164 L45445 47298" /> 
<path d="M45555 47297 L45500 47164" /> 
<path d="M45702 47445 L45555 47297" /> 
<path d="M45895 47525 L45702 47445" /> 
<path d="M46104 47525 L45895 47525" /> 
<path d="M46297 47445 L46104 47525" /> 
<path d="M46445 47298 L46297 47445" /> 
<path d="M46500 47164 L46445 47298" /> 
<path d="M46555 47297 L46500 47164" /> 
<path d="M46702 47445 L46555 47297" /> 
<path d="M46895 47525 L46702 47445" /> 
<path d="M47104 47525 L46895 47525" /> 
<path d="M47297 47445 L47104 47525" /> 
<path d="M47445 47298 L47297 47445" /> 
<path d="M47500 47164 L47445 47298" /> 
<path d="M47555 47297 L47500 47164" /> 
<path d="M47702 47445 L47555 47297" /> 
<path d="M47710 47448 L47702 47445" /> 
<path d="M47710 48000 L47710 47448" /> 
<path d="M47732 48111 L47710 48000" /> 
<path d="M47795 48205 L47732 48111" /> 
<path d="M48210 48620 L47795 48205" /> 
<path d="M48210 49518 L48210 48620" /> 
<path d="M48105 49475 L48210 49518" /> 
<path d="M47896 49475 L48105 49475" /> 
<path d="M47703 49555 L47896 49475" /> 
<path d="M47555 49702 L47703 49555" /> 
<path d="M47499 49835 L47555 49702" /> 
<path d="M47445 49703 L47499 49835" /> 
<path d="M47298 49555 L47445 49703" /> 
<path d="M47105 49475 L47298 49555" /> 
<path d="M46896 49475 L47105 49475" /> 
<path d="M46703 49555 L46896 49475" /> 
<path d="M46555 49702 L46703 49555" /> 
<path d="M46499 49835 L46555 49702" /> 
<path d="M46445 49703 L46499 49835" /> 
<path d="M46298 49555 L46445 49703" /> 
<path d="M46105 49475 L46298 49555" /> 
<path d="M45896 49475 L46105 49475" /> 
<path d="M45703 49555 L45896 49475" /> 
<path d="M45555 49702 L45703 49555" /> 
<path d="M45496 49842 L45555 49702" /> 
<path d="M45452 49733 L45496 49842" /> 
<path d="M45361 49710 L45452 49733" /> 
<path d="M45290 49781 L45361 49710" /> 
<path d="M45290 49639 L45290 49781" /> 
<path d="M45267 49548 L45290 49639" /> 
<path d="M45074 49481 L45267 49548" /> 
<path d="M44870 49492 L45074 49481" /> 
<path d="M44733 49548 L44870 49492" /> 
<path d="M44710 49639 L44733 49548" /> 
<path d="M45000 49929 L44710 49639" /> 
<path d="M45290 49639 L45000 49929" /> 
<path d="M45290 49781 L45290 49639" /> 
<path d="M45071 50000 L45290 49781" /> 
<path d="M45361 50290 L45071 50000" /> 
<path d="M45452 50267 L45361 50290" /> 
<path d="M45493 50148 L45452 50267" /> 
<path d="M45555 50297 L45493 50148" /> 
<path d="M45702 50445 L45555 50297" /> 
<path d="M45710 50448 L45702 50445" /> 
<path d="M45710 51880 L45710 50448" /> 
<path d="M45519 52070 L45710 51880" /> 
<path d="M45519 51574 L45519 52070" /> 
<path d="M45508 51370 L45519 51574" /> 
<path d="M45452 51233 L45508 51370" /> 
<path d="M45361 51210 L45452 51233" /> 
<path d="M45290 51281 L45361 51210" /> 
<path d="M45290 51139 L45290 51281" /> 
<path d="M45290 50361 L45290 51139" /> 
<path d="M45000 50071 L45290 50361" /> 
<path d="M44710 50361 L45000 50071" /> 
<path d="M44733 50452 L44710 50361" /> 
<path d="M44926 50519 L44733 50452" /> 
<path d="M45130 50508 L44926 50519" /> 
<path d="M45267 50452 L45130 50508" /> 
<path d="M45290 50361 L45267 50452" /> 
<path d="M45290 51139 L45290 50361" /> 
<path d="M45267 51048 L45290 51139" /> 
<path d="M45074 50981 L45267 51048" /> 
<path d="M44870 50992 L45074 50981" /> 
<path d="M44733 51048 L44870 50992" /> 
<path d="M44710 51139 L44733 51048" /> 
<path d="M45000 51429 L44710 51139" /> 
<path d="M45290 51139 L45000 51429" /> 
<path d="M45290 51281 L45290 51139" /> 
<path d="M45071 51500 L45290 51281" /> 
<path d="M45361 51790 L45071 51500" /> 
<path d="M45452 51767 L45361 51790" /> 
<path d="M45519 51574 L45452 51767" /> 
<path d="M45519 52070 L45519 51574" /> 
<path d="M45416 52173 L45519 52070" /> 
<path d="M45298 52055 L45416 52173" /> 
<path d="M45157 51996 L45298 52055" /> 
<path d="M45267 51952 L45157 51996" /> 
<path d="M45290 51861 L45267 51952" /> 
<path d="M45000 51571 L45290 51861" /> 
<path d="M44929 51642 L45000 51571" /> 
<path d="M44929 51500 L44929 51642" /> 
<path d="M44639 51210 L44929 51500" /> 
<path d="M44548 51233 L44639 51210" /> 
<path d="M44481 51426 L44548 51233" /> 
<path d="M44492 51630 L44481 51426" /> 
<path d="M44548 51767 L44492 51630" /> 
<path d="M44639 51790 L44548 51767" /> 
<path d="M44929 51500 L44639 51790" /> 
<path d="M44929 51642 L44929 51500" /> 
<path d="M44710 51861 L44929 51642" /> 
<path d="M44733 51952 L44710 51861" /> 
<path d="M44851 51993 L44733 51952" /> 
<path d="M44703 52055 L44851 51993" /> 
<path d="M44555 52202 L44703 52055" /> 
<path d="M44475 52395 L44555 52202" /> 
<path d="M44475 52604 L44475 52395" /> 
<path d="M44555 52797 L44475 52604" /> 
<path d="M44702 52945 L44555 52797" /> 
<path d="M44710 52948 L44702 52945" /> 
<path d="M44710 53052 L44710 52948" /> 
<path d="M44703 53055 L44710 53052" /> 
<path d="M44555 53202 L44703 53055" /> 
<path d="M44475 53395 L44555 53202" /> 
<path d="M44475 53604 L44475 53395" /> 
<path d="M44555 53797 L44475 53604" /> 
<path d="M44702 53945 L44555 53797" /> 
<path d="M44895 54025 L44702 53945" /> 
<path d="M45104 54025 L44895 54025" /> 
<path d="M45297 53945 L45104 54025" /> 
<path d="M45445 53798 L45297 53945" /> 
<path d="M45525 53605 L45445 53798" /> 
<path d="M45525 53396 L45525 53605" /> 
<path d="M45445 53203 L45525 53396" /> 
<path d="M45298 53055 L45445 53203" /> 
<path d="M45290 53051 L45298 53055" /> 
<path d="M45290 52947 L45290 53051" /> 
<path d="M45297 52945 L45290 52947" /> 
<path d="M45445 52798 L45297 52945" /> 
<path d="M45448 52790 L45445 52798" /> 
<path d="M45500 52790 L45448 52790" /> 
<path d="M45611 52768 L45500 52790" /> 
<path d="M45705 52705 L45611 52768" /> 
<path d="M46205 52205 L45705 52705" /> 
<path d="M46250 52137 L46205 52205" /> 
<path d="M46295 52205 L46250 52137" /> 
<path d="M46477 52387 L46295 52205" /> 
<path d="M46475 52395 L46477 52387" /> 
<path d="M46475 52604 L46475 52395" /> 
<path d="M46555 52797 L46475 52604" /> 
<path d="M46702 52945 L46555 52797" /> 
<path d="M46710 52948 L46702 52945" /> 
<path d="M46710 53052 L46710 52948" /> 
<path d="M46703 53055 L46710 53052" /> 
<path d="M46555 53202 L46703 53055" /> 
<path d="M46475 53395 L46555 53202" /> 
<path d="M46475 53604 L46475 53395" /> 
<path d="M46555 53797 L46475 53604" /> 
<path d="M46702 53945 L46555 53797" /> 
<path d="M46895 54025 L46702 53945" /> 
<path d="M47104 54025 L46895 54025" /> 
<path d="M47297 53945 L47104 54025" /> 
<path d="M47445 53798 L47297 53945" /> 
<path d="M47525 53605 L47445 53798" /> 
<path d="M47525 53396 L47525 53605" /> 
<path d="M47445 53203 L47525 53396" /> 
<path d="M47298 53055 L47445 53203" /> 
<path d="M47290 53051 L47298 53055" /> 
<path d="M47290 52947 L47290 53051" /> 
<path d="M47297 52945 L47290 52947" /> 
<path d="M47445 52798 L47297 52945" /> 
<path d="M47525 52605 L47445 52798" /> 
<path d="M47525 52396 L47525 52605" /> 
<path d="M47519 52381 L47525 52396" /> 
<path d="M47519 51574 L47519 52381" /> 
<path d="M47508 51370 L47519 51574" /> 
<path d="M47452 51233 L47508 51370" /> 
<path d="M47361 51210 L47452 51233" /> 
<path d="M47071 51500 L47361 51210" /> 
<path d="M47361 51790 L47071 51500" /> 
<path d="M47452 51767 L47361 51790" /> 
<path d="M47519 51574 L47452 51767" /> 
<path d="M47519 52381 L47519 51574" /> 
<path d="M47445 52203 L47519 52381" /> 
<path d="M47298 52055 L47445 52203" /> 
<path d="M47157 51996 L47298 52055" /> 
<path d="M47267 51952 L47157 51996" /> 
<path d="M47290 51861 L47267 51952" /> 
<path d="M47035 51606 L47290 51861" /> 
<path d="M47000 51571 L47035 51606" /> 
<path d="M46929 51500 L47000 51571" /> 
<path d="M47000 51429 L46929 51500" /> 
<path d="M47035 51394 L47000 51429" /> 
<path d="M47290 51139 L47035 51394" /> 
<path d="M47267 51048 L47290 51139" /> 
<path d="M47074 50981 L47267 51048" /> 
<path d="M46870 50992 L47074 50981" /> 
<path d="M46790 51024 L46870 50992" /> 
<path d="M46790 50620 L46790 51024" /> 
<path d="M46887 50522 L46790 50620" /> 
<path d="M46895 50525 L46887 50522" /> 
<path d="M47104 50525 L46895 50525" /> 
<path d="M47297 50445 L47104 50525" /> 
<path d="M47445 50298 L47297 50445" /> 
<path d="M47500 50164 L47445 50298" /> 
<path d="M47555 50297 L47500 50164" /> 
<path d="M47702 50445 L47555 50297" /> 
<path d="M47710 50448 L47702 50445" /> 
<path d="M47710 54500 L47710 50448" /> 
<path d="M47732 54611 L47710 54500" /> 
<path d="M47795 54705 L47732 54611" /> 
<path d="M48295 55205 L47795 54705" /> 
<path d="M48389 55268 L48295 55205" /> 
<path d="M48500 55290 L48389 55268" /> 
<path d="M48880 55290 L48500 55290" /> 
<path d="M49065 55475 L48880 55290" /> 
</g>
<g style="fill:#000000; fill-opacity:1.0; 
  stroke:#000000; stroke-linecap:round; stroke-linejoin:round; stroke-opacity:1.0; stroke-opacity:1.0; stroke-width:0" 
   transform="translate(0 0) scale(1 1)">
<polygon style="fill-rule:evenodd; " 
points="48499,55835
48445,55703
48298,55555
48105,55475
47896,55475
47703,55555
47555,55702
47499,55835
47445,55703
47298,55555
47105,55475
46896,55475
46790,55518
46790,55500
46768,55389
46705,55295
46205,54795
46111,54732
46000,54710
45620,54710
45205,54295
45111,54232
45000,54210
44620,54210
43705,53295
43611,53232
43500,53210
43439,53210
43486,53097
43486,52904
43412,52725
43310,52622
43310,51628
44219,50719
44286,50619
44286,50618
44310,50500
44310,50432
44445,50298
44503,50157
44548,50267
44639,50290
44929,50000
44639,49710
44548,49733
44506,49851
44445,49703
44298,49555
44290,49551
44290,47361
44000,47071
43710,47361
43733,47452
43926,47519
44130,47508
44267,47452
44290,47361
44290,49551
44105,49475
43913,49475
43219,48781
43119,48714
43000,48690
42628,48690
41810,47872
41810,47489
41895,47525
42104,47525
42297,47445
42445,47298
42500,47164
42555,47297
42702,47445
42895,47525
43104,47525
43297,47445
43445,47298
43503,47157
43548,47267
43639,47290
43929,47000
43639,46710
43548,46733
43506,46851
43445,46703
43298,46555
43105,46475
42896,46475
42703,46555
42555,46702
42499,46835
42445,46703
42298,46555
42105,46475
41896,46475
41810,46510
41810,46500
41810,45877
41912,45776
41986,45597
41986,45404
41912,45225
41776,45088
41597,45014
41404,45014
41290,45061
41290,43120
42120,42290
44552,42290
44555,42297
44702,42445
44895,42525
45104,42525
45297,42445
45445,42298
45490,42188
45528,42281
45622,42308
45929,42000
45622,41692
45528,41719
45492,41818
45445,41703
45326,41583
45620,41290
46380,41290
46657,41567
46535,41689
46497,41780
46472,41719
46378,41692
46308,41762
46308,41622
46281,41528
46079,41457
45866,41468
45719,41528
45692,41622
46000,41929
46308,41622
46308,41762
46071,42000
46000,42071
45692,42378
45719,42472
45784,42495
45689,42535
45535,42689
45451,42891
45451,43109
45535,43311
45689,43465
45773,43500
45689,43535
45535,43689
45451,43891
45451,44109
45451,44110
45087,44475
44896,44475
44703,44555
44555,44702
44475,44895
44475,45104
44555,45297
44690,45432
44690,45500
44714,45619
44781,45719
45281,46219
45659,46597
45555,46702
45499,46835
45445,46703
45298,46555
45105,46475
44896,46475
44703,46555
44555,46702
44496,46842
44452,46733
44361,46710
44290,46781
44290,46639
44267,46548
44074,46481
43870,46492
43733,46548
43710,46639
44000,46929
44290,46639
44290,46781
44071,47000
44361,47290
44452,47267
44493,47148
44555,47297
44702,47445
44895,47525
45104,47525
45297,47445
45445,47298
45500,47164
45555,47297
45702,47445
45895,47525
46104,47525
46297,47445
46445,47298
46500,47164
46555,47297
46702,47445
46895,47525
47104,47525
47297,47445
47445,47298
47500,47164
47555,47297
47702,47445
47710,47448
47710,48000
47732,48111
47795,48205
48210,48620
48210,49518
48105,49475
47896,49475
47703,49555
47555,49702
47499,49835
47445,49703
47298,49555
47105,49475
46896,49475
46703,49555
46555,49702
46499,49835
46445,49703
46298,49555
46105,49475
45896,49475
45703,49555
45555,49702
45496,49842
45452,49733
45361,49710
45290,49781
45290,49639
45267,49548
45074,49481
44870,49492
44733,49548
44710,49639
45000,49929
45290,49639
45290,49781
45071,50000
45361,50290
45452,50267
45493,50148
45555,50297
45702,50445
45710,50448
45710,51880
45519,52070
45519,51574
45508,51370
45452,51233
45361,51210
45290,51281
45290,51139
45290,50361
45000,50071
44710,50361
44733,50452
44926,50519
45130,50508
45267,50452
45290,50361
45290,51139
45267,51048
45074,50981
44870,50992
44733,51048
44710,51139
45000,51429
45290,51139
45290,51281
45071,51500
45361,51790
45452,51767
45519,51574
45519,52070
45416,52173
45298,52055
45157,51996
45267,51952
45290,51861
45000,51571
44929,51642
44929,51500
44639,51210
44548,51233
44481,51426
44492,51630
44548,51767
44639,51790
44929,51500
44929,51642
44710,51861
44733,51952
44851,51993
44703,52055
44555,52202
44475,52395
44475,52604
44555,52797
44702,52945
44710,52948
44710,53052
44703,53055
44555,53202
44475,53395
44475,53604
44555,53797
44702,53945
44895,54025
45104,54025
45297,53945
45445,53798
45525,53605
45525,53396
45445,53203
45298,53055
45290,53051
45290,52947
45297,52945
45445,52798
45448,52790
45500,52790
45611,52768
45705,52705
46205,52205
46250,52137
46295,52205
46477,52387
46475,52395
46475,52604
46555,52797
46702,52945
46710,52948
46710,53052
46703,53055
46555,53202
46475,53395
46475,53604
46555,53797
46702,53945
46895,54025
47104,54025
47297,53945
47445,53798
47525,53605
47525,53396
47445,53203
47298,53055
47290,53051
47290,52947
47297,52945
47445,52798
47525,52605
47525,52396
47519,52381
47519,51574
47508,51370
47452,51233
47361,51210
47071,51500
47361,51790
47452,51767
47519,51574
47519,52381
47445,52203
47298,52055
47157,51996
47267,51952
47290,51861
47035,51606
47000,51571
46929,51500
47000,51429
47035,51394
47290,51139
47267,51048
47074,50981
46870,50992
46790,51024
46790,50620
46887,50522
46895,50525
47104,50525
47297,50445
47445,50298
47500,50164
47555,50297
47702,50445
47710,50448
47710,54500
47732,54611
47795,54705
48295,55205
48389,55268
48500,55290
48880,55290
49065,55475
49065,55475
48896,55475
48703,55555
48555,55702
" /> 
</g>
<g style="fill:#000000; fill-opacity:1.0; 
  stroke:#000000; stroke-linecap:round; stroke-linejoin:round; stroke-opacity:1.0; stroke-opacity:1.0; stroke-width:100" 
   transform="translate(0 0) scale(1 1)">
<path d="M50710 58552 L50710 58552" /> 
<path d="M50703 58555 L50710 58552" /> 
<path d="M50555 58702 L50703 58555" /> 
<path d="M50499 58835 L50555 58702" /> 
<path d="M50445 58703 L50499 58835" /> 
<path d="M50298 58555 L50445 58703" /> 
<path d="M50290 58551 L50298 58555" /> 
<path d="M50290 58500 L50290 58551" /> 
<path d="M50268 58389 L50290 58500" /> 
<path d="M50205 58295 L50268 58389" /> 
<path d="M49705 57795 L50205 58295" /> 
<path d="M48705 56795 L49705 57795" /> 
<path d="M48611 56732 L48705 56795" /> 
<path d="M48500 56710 L48611 56732" /> 
<path d="M47120 56710 L48500 56710" /> 
<path d="M46935 56525 L47120 56710" /> 
<path d="M47104 56525 L46935 56525" /> 
<path d="M47297 56445 L47104 56525" /> 
<path d="M47445 56298 L47297 56445" /> 
<path d="M47500 56164 L47445 56298" /> 
<path d="M47555 56297 L47500 56164" /> 
<path d="M47702 56445 L47555 56297" /> 
<path d="M47895 56525 L47702 56445" /> 
<path d="M48104 56525 L47895 56525" /> 
<path d="M48297 56445 L48104 56525" /> 
<path d="M48445 56298 L48297 56445" /> 
<path d="M48500 56164 L48445 56298" /> 
<path d="M48555 56297 L48500 56164" /> 
<path d="M48702 56445 L48555 56297" /> 
<path d="M48895 56525 L48702 56445" /> 
<path d="M49104 56525 L48895 56525" /> 
<path d="M49210 56481 L49104 56525" /> 
<path d="M49210 56500 L49210 56481" /> 
<path d="M49232 56611 L49210 56500" /> 
<path d="M49295 56705 L49232 56611" /> 
<path d="M50710 58120 L49295 56705" /> 
<path d="M50710 58552 L50710 58120" /> 
</g>
<g style="fill:#000000; fill-opacity:1.0; 
  stroke:#000000; stroke-linecap:round; stroke-linejoin:round; stroke-opacity:1.0; stroke-opacity:1.0; stroke-width:0" 
   transform="translate(0 0) scale(1 1)">
<polygon style="fill-rule:evenodd; " 
points="50445,58703
50298,58555
50290,58551
50290,58500
50268,58389
50205,58295
49705,57795
48705,56795
48611,56732
48500,56710
47120,56710
46935,56525
47104,56525
47297,56445
47445,56298
47500,56164
47555,56297
47702,56445
47895,56525
48104,56525
48297,56445
48445,56298
48500,56164
48555,56297
48702,56445
48895,56525
49104,56525
49210,56481
49210,56500
49232,56611
49295,56705
50710,58120
50710,58552
50710,58552
50703,58555
50555,58702
50499,58835
" /> 
</g>
<g style="fill:#000000; fill-opacity:1.0; 
  stroke:#000000; stroke-linecap:round; stroke-linejoin:round; stroke-opacity:1.0; stroke-opacity:1.0; stroke-width:100" 
   transform="translate(0 0) scale(1 1)">
<path d="M58175 58865 L58175 58865" /> 
<path d="M56964 60075 L58175 58865" /> 
<path d="M56804 60175 L56964 60075" /> 
<path d="M56790 60175 L56804 60175" /> 
<path d="M56790 56500 L56790 60175" /> 
<path d="M56790 55500 L56790 56500" /> 
<path d="M56768 55389 L56790 55500" /> 
<path d="M56705 55295 L56768 55389" /> 
<path d="M51522 50112 L56705 55295" /> 
<path d="M51525 50105 L51522 50112" /> 
<path d="M51525 49896 L51525 50105" /> 
<path d="M51445 49703 L51525 49896" /> 
<path d="M51298 49555 L51445 49703" /> 
<path d="M51105 49475 L51298 49555" /> 
<path d="M50896 49475 L51105 49475" /> 
<path d="M50790 49518 L50896 49475" /> 
<path d="M50790 49000 L50790 49518" /> 
<path d="M50768 48889 L50790 49000" /> 
<path d="M50705 48795 L50768 48889" /> 
<path d="M50290 48380 L50705 48795" /> 
<path d="M50290 47447 L50290 48380" /> 
<path d="M50297 47445 L50290 47447" /> 
<path d="M50445 47298 L50297 47445" /> 
<path d="M50500 47164 L50445 47298" /> 
<path d="M50555 47297 L50500 47164" /> 
<path d="M50702 47445 L50555 47297" /> 
<path d="M50895 47525 L50702 47445" /> 
<path d="M51104 47525 L50895 47525" /> 
<path d="M51297 47445 L51104 47525" /> 
<path d="M51445 47298 L51297 47445" /> 
<path d="M51525 47105 L51445 47298" /> 
<path d="M51525 46896 L51525 47105" /> 
<path d="M51445 46703 L51525 46896" /> 
<path d="M51298 46555 L51445 46703" /> 
<path d="M51105 46475 L51298 46555" /> 
<path d="M50896 46475 L51105 46475" /> 
<path d="M50703 46555 L50896 46475" /> 
<path d="M50555 46702 L50703 46555" /> 
<path d="M50499 46835 L50555 46702" /> 
<path d="M50445 46703 L50499 46835" /> 
<path d="M50298 46555 L50445 46703" /> 
<path d="M50105 46475 L50298 46555" /> 
<path d="M49896 46475 L50105 46475" /> 
<path d="M49703 46555 L49896 46475" /> 
<path d="M49555 46702 L49703 46555" /> 
<path d="M49499 46835 L49555 46702" /> 
<path d="M49445 46703 L49499 46835" /> 
<path d="M49298 46555 L49445 46703" /> 
<path d="M49290 46551 L49298 46555" /> 
<path d="M49290 46500 L49290 46551" /> 
<path d="M49268 46389 L49290 46500" /> 
<path d="M49205 46295 L49268 46389" /> 
<path d="M48290 45380 L49205 46295" /> 
<path d="M48290 43000 L48290 45380" /> 
<path d="M48268 42889 L48290 43000" /> 
<path d="M48205 42795 L48268 42889" /> 
<path d="M47705 42295 L48205 42795" /> 
<path d="M47611 42232 L47705 42295" /> 
<path d="M47506 42211 L47611 42232" /> 
<path d="M47549 42109 L47506 42211" /> 
<path d="M47549 41891 L47549 42109" /> 
<path d="M47465 41689 L47549 41891" /> 
<path d="M47311 41535 L47465 41689" /> 
<path d="M47290 41526 L47311 41535" /> 
<path d="M47290 41500 L47290 41526" /> 
<path d="M47268 41389 L47290 41500" /> 
<path d="M47205 41295 L47268 41389" /> 
<path d="M46705 40795 L47205 41295" /> 
<path d="M46611 40732 L46705 40795" /> 
<path d="M46500 40710 L46611 40732" /> 
<path d="M45500 40710 L46500 40710" /> 
<path d="M45389 40732 L45500 40710" /> 
<path d="M45295 40795 L45389 40732" /> 
<path d="M44795 41295 L45295 40795" /> 
<path d="M44732 41389 L44795 41295" /> 
<path d="M44710 41500 L44732 41389" /> 
<path d="M44710 41552 L44710 41500" /> 
<path d="M44703 41555 L44710 41552" /> 
<path d="M44555 41702 L44703 41555" /> 
<path d="M44551 41710 L44555 41702" /> 
<path d="M42000 41710 L44551 41710" /> 
<path d="M41889 41732 L42000 41710" /> 
<path d="M41795 41795 L41889 41732" /> 
<path d="M40795 42795 L41795 41795" /> 
<path d="M40732 42889 L40795 42795" /> 
<path d="M40710 43000 L40732 42889" /> 
<path d="M40710 45880 L40710 43000" /> 
<path d="M40295 46295 L40710 45880" /> 
<path d="M40232 46389 L40295 46295" /> 
<path d="M40210 46500 L40232 46389" /> 
<path d="M40210 46518 L40210 46500" /> 
<path d="M40105 46475 L40210 46518" /> 
<path d="M39896 46475 L40105 46475" /> 
<path d="M39703 46555 L39896 46475" /> 
<path d="M39555 46702 L39703 46555" /> 
<path d="M39499 46835 L39555 46702" /> 
<path d="M39445 46703 L39499 46835" /> 
<path d="M39298 46555 L39445 46703" /> 
<path d="M39105 46475 L39298 46555" /> 
<path d="M38896 46475 L39105 46475" /> 
<path d="M38703 46555 L38896 46475" /> 
<path d="M38555 46702 L38703 46555" /> 
<path d="M38499 46835 L38555 46702" /> 
<path d="M38445 46703 L38499 46835" /> 
<path d="M38298 46555 L38445 46703" /> 
<path d="M38105 46475 L38298 46555" /> 
<path d="M37896 46475 L38105 46475" /> 
<path d="M37703 46555 L37896 46475" /> 
<path d="M37555 46702 L37703 46555" /> 
<path d="M37475 46895 L37555 46702" /> 
<path d="M37475 47104 L37475 46895" /> 
<path d="M37555 47297 L37475 47104" /> 
<path d="M37702 47445 L37555 47297" /> 
<path d="M37895 47525 L37702 47445" /> 
<path d="M38104 47525 L37895 47525" /> 
<path d="M38297 47445 L38104 47525" /> 
<path d="M38445 47298 L38297 47445" /> 
<path d="M38500 47164 L38445 47298" /> 
<path d="M38555 47297 L38500 47164" /> 
<path d="M38702 47445 L38555 47297" /> 
<path d="M38895 47525 L38702 47445" /> 
<path d="M39104 47525 L38895 47525" /> 
<path d="M39297 47445 L39104 47525" /> 
<path d="M39445 47298 L39297 47445" /> 
<path d="M39500 47164 L39445 47298" /> 
<path d="M39555 47297 L39500 47164" /> 
<path d="M39702 47445 L39555 47297" /> 
<path d="M39895 47525 L39702 47445" /> 
<path d="M40065 47525 L39895 47525" /> 
<path d="M38114 49476 L40065 47525" /> 
<path d="M37676 49476 L38114 49476" /> 
<path d="M37584 49514 L37676 49476" /> 
<path d="M37514 49584 L37584 49514" /> 
<path d="M37476 49675 L37514 49584" /> 
<path d="M37476 49774 L37476 49675" /> 
<path d="M37476 50324 L37476 49774" /> 
<path d="M37514 50416 L37476 50324" /> 
<path d="M37584 50486 L37514 50416" /> 
<path d="M37675 50524 L37584 50486" /> 
<path d="M37774 50524 L37675 50524" /> 
<path d="M38324 50524 L37774 50524" /> 
<path d="M38416 50486 L38324 50524" /> 
<path d="M38486 50416 L38416 50486" /> 
<path d="M38524 50325 L38486 50416" /> 
<path d="M38524 50226 L38524 50325" /> 
<path d="M38524 50222 L38524 50226" /> 
<path d="M38555 50297 L38524 50222" /> 
<path d="M38702 50445 L38555 50297" /> 
<path d="M38710 50448 L38702 50445" /> 
<path d="M38710 52560 L38710 50448" /> 
<path d="M38597 52514 L38710 52560" /> 
<path d="M38404 52514 L38597 52514" /> 
<path d="M38225 52588 L38404 52514" /> 
<path d="M38088 52724 L38225 52588" /> 
<path d="M38014 52903 L38088 52724" /> 
<path d="M38014 53096 L38014 52903" /> 
<path d="M38088 53275 L38014 53096" /> 
<path d="M38190 53377 L38088 53275" /> 
<path d="M38190 54500 L38190 53377" /> 
<path d="M38214 54619 L38190 54500" /> 
<path d="M38281 54719 L38214 54619" /> 
<path d="M38781 55219 L38281 54719" /> 
<path d="M38881 55286 L38781 55219" /> 
<path d="M38882 55286 L38881 55286" /> 
<path d="M39000 55310 L38882 55286" /> 
<path d="M40872 55310 L39000 55310" /> 
<path d="M41190 55628 L40872 55310" /> 
<path d="M41190 59500 L41190 55628" /> 
<path d="M41214 59619 L41190 59500" /> 
<path d="M41281 59719 L41214 59619" /> 
<path d="M41781 60219 L41281 59719" /> 
<path d="M41881 60286 L41781 60219" /> 
<path d="M41882 60286 L41881 60286" /> 
<path d="M42000 60310 L41882 60286" /> 
<path d="M47500 60310 L42000 60310" /> 
<path d="M47618 60286 L47500 60310" /> 
<path d="M47619 60286 L47618 60286" /> 
<path d="M47719 60219 L47619 60286" /> 
<path d="M48219 59719 L47719 60219" /> 
<path d="M48286 59619 L48219 59719" /> 
<path d="M48286 59618 L48286 59619" /> 
<path d="M48310 59500 L48286 59618" /> 
<path d="M48310 59432 L48310 59500" /> 
<path d="M48445 59298 L48310 59432" /> 
<path d="M48500 59164 L48445 59298" /> 
<path d="M48555 59297 L48500 59164" /> 
<path d="M48702 59445 L48555 59297" /> 
<path d="M48895 59525 L48702 59445" /> 
<path d="M49104 59525 L48895 59525" /> 
<path d="M49297 59445 L49104 59525" /> 
<path d="M49445 59298 L49297 59445" /> 
<path d="M49500 59164 L49445 59298" /> 
<path d="M49555 59297 L49500 59164" /> 
<path d="M49702 59445 L49555 59297" /> 
<path d="M49895 59525 L49702 59445" /> 
<path d="M50104 59525 L49895 59525" /> 
<path d="M50297 59445 L50104 59525" /> 
<path d="M50445 59298 L50297 59445" /> 
<path d="M50500 59164 L50445 59298" /> 
<path d="M50555 59297 L50500 59164" /> 
<path d="M50702 59445 L50555 59297" /> 
<path d="M50895 59525 L50702 59445" /> 
<path d="M51104 59525 L50895 59525" /> 
<path d="M51297 59445 L51104 59525" /> 
<path d="M51445 59298 L51297 59445" /> 
<path d="M51500 59164 L51445 59298" /> 
<path d="M51555 59297 L51500 59164" /> 
<path d="M51702 59445 L51555 59297" /> 
<path d="M51895 59525 L51702 59445" /> 
<path d="M52104 59525 L51895 59525" /> 
<path d="M52297 59445 L52104 59525" /> 
<path d="M52445 59298 L52297 59445" /> 
<path d="M52500 59164 L52445 59298" /> 
<path d="M52555 59297 L52500 59164" /> 
<path d="M52702 59445 L52555 59297" /> 
<path d="M52895 59525 L52702 59445" /> 
<path d="M53104 59525 L52895 59525" /> 
<path d="M53297 59445 L53104 59525" /> 
<path d="M53445 59298 L53297 59445" /> 
<path d="M53500 59164 L53445 59298" /> 
<path d="M53555 59297 L53500 59164" /> 
<path d="M53702 59445 L53555 59297" /> 
<path d="M53895 59525 L53702 59445" /> 
<path d="M54104 59525 L53895 59525" /> 
<path d="M54297 59445 L54104 59525" /> 
<path d="M54445 59298 L54297 59445" /> 
<path d="M54500 59164 L54445 59298" /> 
<path d="M54555 59297 L54500 59164" /> 
<path d="M54702 59445 L54555 59297" /> 
<path d="M54895 59525 L54702 59445" /> 
<path d="M55104 59525 L54895 59525" /> 
<path d="M55297 59445 L55104 59525" /> 
<path d="M55445 59298 L55297 59445" /> 
<path d="M55500 59164 L55445 59298" /> 
<path d="M55555 59297 L55500 59164" /> 
<path d="M55702 59445 L55555 59297" /> 
<path d="M55895 59525 L55702 59445" /> 
<path d="M56104 59525 L55895 59525" /> 
<path d="M56297 59445 L56104 59525" /> 
<path d="M56445 59298 L56297 59445" /> 
<path d="M56525 59105 L56445 59298" /> 
<path d="M56525 58896 L56525 59105" /> 
<path d="M56445 58703 L56525 58896" /> 
<path d="M56298 58555 L56445 58703" /> 
<path d="M56290 58551 L56298 58555" /> 
<path d="M56290 57120 L56290 58551" /> 
<path d="M56705 56705 L56290 57120" /> 
<path d="M56768 56611 L56705 56705" /> 
<path d="M56790 56500 L56768 56611" /> 
<path d="M56790 60175 L56790 56500" /> 
<path d="M56000 60175 L56790 60175" /> 
<path d="M55875 60200 L56000 60175" /> 
<path d="M55770 60270 L55875 60200" /> 
<path d="M55365 60675 L55770 60270" /> 
<path d="M41830 60675 L55365 60675" /> 
<path d="M41142 60182 L41830 60675" /> 
<path d="M40825 59865 L41142 60182" /> 
<path d="M40825 57000 L40825 59865" /> 
<path d="M40800 56876 L40825 57000" /> 
<path d="M40800 56875 L40800 56876" /> 
<path d="M40730 56770 L40800 56875" /> 
<path d="M39730 55770 L40730 56770" /> 
<path d="M39624 55700 L39730 55770" /> 
<path d="M39500 55675 L39624 55700" /> 
<path d="M37635 55675 L39500 55675" /> 
<path d="M37230 55270 L37635 55675" /> 
<path d="M36325 54365 L37230 55270" /> 
<path d="M36325 47135 L36325 54365" /> 
<path d="M37230 46230 L36325 47135" /> 
<path d="M37300 46125 L37230 46230" /> 
<path d="M37300 46124 L37300 46125" /> 
<path d="M37325 46000 L37300 46124" /> 
<path d="M37325 39634 L37325 46000" /> 
<path d="M39634 37325 L37325 39634" /> 
<path d="M50365 37325 L39634 37325" /> 
<path d="M51675 38635 L50365 37325" /> 
<path d="M51675 48000 L51675 38635" /> 
<path d="M51700 48124 L51675 48000" /> 
<path d="M51770 48230 L51700 48124" /> 
<path d="M58175 54635 L51770 48230" /> 
<path d="M58175 58865 L58175 54635" /> 
</g>
<g style="fill:#000000; fill-opacity:1.0; 
  stroke:#000000; stroke-linecap:round; stroke-linejoin:round; stroke-opacity:1.0; stroke-opacity:1.0; stroke-width:0" 
   transform="translate(0 0) scale(1 1)">
<polygon style="fill-rule:evenodd; " 
points="56790,56500
56790,55500
56768,55389
56705,55295
51522,50112
51525,50105
51525,49896
51445,49703
51298,49555
51105,49475
50896,49475
50790,49518
50790,49000
50768,48889
50705,48795
50290,48380
50290,47447
50297,47445
50445,47298
50500,47164
50555,47297
50702,47445
50895,47525
51104,47525
51297,47445
51445,47298
51525,47105
51525,46896
51445,46703
51298,46555
51105,46475
50896,46475
50703,46555
50555,46702
50499,46835
50445,46703
50298,46555
50105,46475
49896,46475
49703,46555
49555,46702
49499,46835
49445,46703
49298,46555
49290,46551
49290,46500
49268,46389
49205,46295
48290,45380
48290,43000
48268,42889
48205,42795
47705,42295
47611,42232
47506,42211
47549,42109
47549,41891
47465,41689
47311,41535
47290,41526
47290,41500
47268,41389
47205,41295
46705,40795
46611,40732
46500,40710
45500,40710
45389,40732
45295,40795
44795,41295
44732,41389
44710,41500
44710,41552
44703,41555
44555,41702
44551,41710
42000,41710
41889,41732
41795,41795
40795,42795
40732,42889
40710,43000
40710,45880
40295,46295
40232,46389
40210,46500
40210,46518
40105,46475
39896,46475
39703,46555
39555,46702
39499,46835
39445,46703
39298,46555
39105,46475
38896,46475
38703,46555
38555,46702
38499,46835
38445,46703
38298,46555
38105,46475
37896,46475
37703,46555
37555,46702
37475,46895
37475,47104
37555,47297
37702,47445
37895,47525
38104,47525
38297,47445
38445,47298
38500,47164
38555,47297
38702,47445
38895,47525
39104,47525
39297,47445
39445,47298
39500,47164
39555,47297
39702,47445
39895,47525
40065,47525
38114,49476
37676,49476
37584,49514
37514,49584
37476,49675
37476,49774
37476,50324
37514,50416
37584,50486
37675,50524
37774,50524
38324,50524
38416,50486
38486,50416
38524,50325
38524,50226
38524,50222
38555,50297
38702,50445
38710,50448
38710,52560
38597,52514
38404,52514
38225,52588
38088,52724
38014,52903
38014,53096
38088,53275
38190,53377
38190,54500
38214,54619
38281,54719
38781,55219
38881,55286
38882,55286
39000,55310
40872,55310
41190,55628
41190,59500
41214,59619
41281,59719
41781,60219
41881,60286
41882,60286
42000,60310
47500,60310
47618,60286
47619,60286
47719,60219
48219,59719
48286,59619
48286,59618
48310,59500
48310,59432
48445,59298
48500,59164
48555,59297
48702,59445
48895,59525
49104,59525
49297,59445
49445,59298
49500,59164
49555,59297
49702,59445
49895,59525
50104,59525
50297,59445
50445,59298
50500,59164
50555,59297
50702,59445
50895,59525
51104,59525
51297,59445
51445,59298
51500,59164
51555,59297
51702,59445
51895,59525
52104,59525
52297,59445
52445,59298
52500,59164
52555,59297
52702,59445
52895,59525
53104,59525
53297,59445
53445,59298
53500,59164
53555,59297
53702,59445
53895,59525
54104,59525
54297,59445
54445,59298
54500,59164
54555,59297
54702,59445
54895,59525
55104,59525
55297,59445
55445,59298
55500,59164
55555,59297
55702,59445
55895,59525
56104,59525
56297,59445
56445,59298
56525,59105
56525,58896
56445,58703
56298,58555
56290,58551
56290,57120
56705,56705
56768,56611
56790,56500
56790,60175
56000,60175
55875,60200
55770,60270
55365,60675
41830,60675
41142,60182
40825,59865
40825,57000
40800,56876
40800,56875
40730,56770
39730,55770
39624,55700
39500,55675
37635,55675
37230,55270
36325,54365
36325,47135
37230,46230
37300,46125
37300,46124
37325,46000
37325,39634
39634,37325
50365,37325
51675,38635
51675,48000
51700,48124
51770,48230
58175,54635
58175,58865
58175,58865
56964,60075
56804,60175
56790,60175
" /> 
<ellipse cx="39000" cy="50000" rx="275" ry="275"  /> 
</g>
<g style="fill:#FFFFFF; fill-opacity:1.0; 
  stroke:#808000; stroke-linecap:round; stroke-linejoin:round; stroke-opacity:1.0; stroke-opacity:1.0; stroke-width:0" 
   transform="translate(0 0) scale(1 1)">
<ellipse cx="39000" cy="50000" rx="160" ry="160"  /> 
</g>
<g style="fill:#000000; fill-opacity:1.0; 
  stroke:#000000; stroke-linecap:round; stroke-linejoin:round; stroke-opacity:1.0; stroke-opacity:1.0; stroke-width:0" 
   transform="translate(0 0) scale(1 1)">
<ellipse cx="40000" cy="50000" rx="275" ry="275"  /> 
</g>
<g style="fill:#FFFFFF; fill-opacity:1.0; 
  stroke:#808000; stroke-linecap:round; stroke-linejoin:round; stroke-opacity:1.0; stroke-opacity:1.0; stroke-width:0" 
   transform="translate(0 0) scale(1 1)">
<ellipse cx="40000" cy="50000" rx="160" ry="160"  /> 
</g>
<g style="fill:#000000; fill-opacity:1.0; 
  stroke:#000000; stroke-linecap:round; stroke-linejoin:round; stroke-opacity:1.0; stroke-opacity:1.0; stroke-width:0" 
   transform="translate(0 0) scale(1 1)">
<ellipse cx="41000" cy="50000" rx="275" ry="275"  /> 
</g>
<g style="fill:#FFFFFF; fill-opacity:1.0; 
  stroke:#808000; stroke-linecap:round; stroke-linejoin:round; stroke-opacity:1.0; stroke-opacity:1.0; stroke-width:0" 
   transform="translate(0 0) scale(1 1)">
<ellipse cx="41000" cy="50000" rx="160" ry="160"  /> 
</g>
<g style="fill:#000000; fill-opacity:1.0; 
  stroke:#000000; stroke-linecap:round; stroke-linejoin:round; stroke-opacity:1.0; stroke-opacity:1.0; stroke-width:0" 
   transform="translate(0 0) scale(1 1)">
<ellipse cx="42000" cy="50000" rx="275" ry="275"  /> 
</g>
<g style="fill:#FFFFFF; fill-opacity:1.0; 
  stroke:#808000; stroke-linecap:round; stroke-linejoin:round; stroke-opacity:1.0; stroke-opacity:1.0; stroke-width:0" 
   transform="translate(0 0) scale(1 1)">
<ellipse cx="42000" cy="50000" rx="160" ry="160"  /> 
</g>
<g style="fill:#000000; fill-opacity:1.0; 
  stroke:#000000; stroke-linecap:round; stroke-linejoin:round; stroke-opacity:1.0; stroke-opacity:1.0; stroke-width:0" 
   transform="translate(0 0) scale(1 1)">
<ellipse cx="43000" cy="50000" rx="275" ry="275"  /> 
</g>
<g style="fill:#FFFFFF; fill-opacity:1.0; 
  stroke:#808000; stroke-linecap:round; stroke-linejoin:round; stroke-opacity:1.0; stroke-opacity:1.0; stroke-width:0" 
   transform="translate(0 0) scale(1 1)">
<ellipse cx="43000" cy="50000" rx="160" ry="160"  /> 
</g>
<g style="fill:#000000; fill-opacity:1.0; 
  stroke:#000000; stroke-linecap:round; stroke-linejoin:round; stroke-opacity:1.0; stroke-opacity:1.0; stroke-width:0" 
   transform="translate(0 0) scale(1 1)">
<ellipse cx="44000" cy="50000" rx="275" ry="275"  /> 
</g>
<g style="fill:#FFFFFF; fill-opacity:1.0; 
  stroke:#808000; stroke-linecap:round; stroke-linejoin:round; stroke-opacity:1.0; stroke-opacity:1.0; stroke-width:0" 
   transform="translate(0 0) scale(1 1)">
<ellipse cx="44000" cy="50000" rx="160" ry="160"  /> 
</g>
<g style="fill:#000000; fill-opacity:1.0; 
  stroke:#000000; stroke-linecap:round; stroke-linejoin:round; stroke-opacity:1.0; stroke-opacity:1.0; stroke-width:0" 
   transform="translate(0 0) scale(1 1)">
<ellipse cx="45000" cy="50000" rx="275" ry="275"  /> 
</g>
<g style="fill:#FFFFFF; fill-opacity:1.0; 
  stroke:#808000; stroke-linecap:round; stroke-linejoin:round; stroke-opacity:1.0; stroke-opacity:1.0; stroke-width:0" 
   transform="translate(0 0) scale(1 1)">
<ellipse cx="45000" cy="50000" rx="160" ry="160"  /> 
</g>
<g style="fill:#000000; fill-opacity:1.0; 
  stroke:#000000; stroke-linecap:round; stroke-linejoin:round; stroke-opacity:1.0; stroke-opacity:1.0; stroke-width:0" 
   transform="translate(0 0) scale(1 1)">
<ellipse cx="46000" cy="50000" rx="275" ry="275"  /> 
</g>
<g style="fill:#FFFFFF; fill-opacity:1.0; 
  stroke:#808000; stroke-linecap:round; stroke-linejoin:round; stroke-opacity:1.0; stroke-opacity:1.0; stroke-width:0" 
   transform="translate(0 0) scale(1 1)">
<ellipse cx="46000" cy="50000" rx="160" ry="160"  /> 
</g>
<g style="fill:#000000; fill-opacity:1.0; 
  stroke:#000000; stroke-linecap:round; stroke-linejoin:round; stroke-opacity:1.0; stroke-opacity:1.0; stroke-width:0" 
   transform="translate(0 0) scale(1 1)">
<ellipse cx="47000" cy="50000" rx="275" ry="275"  /> 
</g>
<g style="fill:#FFFFFF; fill-opacity:1.0; 
  stroke:#808000; stroke-linecap:round; stroke-linejoin:round; stroke-opacity:1.0; stroke-opacity:1.0; stroke-width:0" 
   transform="translate(0 0) scale(1 1)">
<ellipse cx="47000" cy="50000" rx="160" ry="160"  /> 
</g>
<g style="fill:#000000; fill-opacity:1.0; 
  stroke:#000000; stroke-linecap:round; stroke-linejoin:round; stroke-opacity:1.0; stroke-opacity:1.0; stroke-width:0" 
   transform="translate(0 0) scale(1 1)">
<ellipse cx="48000" cy="50000" rx="275" ry="275"  /> 
</g>
<g style="fill:#FFFFFF; fill-opacity:1.0; 
  stroke:#808000; stroke-linecap:round; stroke-linejoin:round; stroke-opacity:1.0; stroke-opacity:1.0; stroke-width:0" 
   transform="translate(0 0) scale(1 1)">
<ellipse cx="48000" cy="50000" rx="160" ry="160"  /> 
</g>
<g style="fill:#000000; fill-opacity:1.0; 
  stroke:#000000; stroke-linecap:round; stroke-linejoin:round; stroke-opacity:1.0; stroke-opacity:1.0; stroke-width:0" 
   transform="translate(0 0) scale(1 1)">
<ellipse cx="49000" cy="50000" rx="275" ry="275"  /> 
</g>
<g style="fill:#FFFFFF; fill-opacity:1.0; 
  stroke:#808000; stroke-linecap:round; stroke-linejoin:round; stroke-opacity:1.0; stroke-opacity:1.0; stroke-width:0" 
   transform="translate(0 0) scale(1 1)">
<ellipse cx="49000" cy="50000" rx="160" ry="160"  /> 
</g>
<g style="fill:#000000; fill-opacity:1.0; 
  stroke:#000000; stroke-linecap:round; stroke-linejoin:round; stroke-opacity:1.0; stroke-opacity:1.0; stroke-width:0" 
   transform="translate(0 0) scale(1 1)">
<ellipse cx="50000" cy="50000" rx="275" ry="275"  /> 
</g>
<g style="fill:#FFFFFF; fill-opacity:1.0; 
  stroke:#808000; stroke-linecap:round; stroke-linejoin:round; stroke-opacity:1.0; stroke-opacity:1.0; stroke-width:0" 
   transform="translate(0 0) scale(1 1)">
<ellipse cx="50000" cy="50000" rx="160" ry="160"  /> 
</g>
<g style="fill:#000000; fill-opacity:1.0; 
  stroke:#000000; stroke-linecap:round; stroke-linejoin:round; stroke-opacity:1.0; stroke-opacity:1.0; stroke-width:0" 
   transform="translate(0 0) scale(1 1)">
<ellipse cx="51000" cy="50000" rx="275" ry="275"  /> 
</g>
<g style="fill:#FFFFFF; fill-opacity:1.0; 
  stroke:#808000; stroke-linecap:round; stroke-linejoin:round; stroke-opacity:1.0; stroke-opacity:1.0; stroke-width:0" 
   transform="translate(0 0) scale(1 1)">
<ellipse cx="51000" cy="50000" rx="160" ry="160"  /> 
</g>
<g style="fill:#000000; fill-opacity:1.0; 
  stroke:#000000; stroke-linecap:round; stroke-linejoin:round; stroke-opacity:1.0; stroke-opacity:1.0; stroke-width:0" 
   transform="translate(0 0) scale(1 1)">
<polygon style="fill-rule:evenodd; " 
points="37725,50275
37725,49725
38275,49725
38275,50275
" /> 
</g>
<g style="fill:#FFFFFF; fill-opacity:1.0; 
  stroke:#808000; stroke-linecap:round; stroke-linejoin:round; stroke-opacity:1.0; stroke-opacity:1.0; stroke-width:0" 
   transform="translate(0 0) scale(1 1)">
<ellipse cx="38000" cy="50000" rx="160" ry="160"  /> 
</g>
<g style="fill:#000000; fill-opacity:1.0; 
  stroke:#000000; stroke-linecap:round; stroke-linejoin:round; stroke-opacity:1.0; stroke-opacity:1.0; stroke-width:0" 
   transform="translate(0 0) scale(1 1)">
<ellipse cx="51000" cy="47000" rx="275" ry="275"  /> 
</g>
<g style="fill:#FFFFFF; fill-opacity:1.0; 
  stroke:#808000; stroke-linecap:round; stroke-linejoin:round; stroke-opacity:1.0; stroke-opacity:1.0; stroke-width:0" 
   transform="translate(0 0) scale(1 1)">
<ellipse cx="51000" cy="47000" rx="160" ry="160"  /> 
</g>
<g style="fill:#000000; fill-opacity:1.0; 
  stroke:#000000; stroke-linecap:round; stroke-linejoin:round; stroke-opacity:1.0; stroke-opacity:1.0; stroke-width:0" 
   transform="translate(0 0) scale(1 1)">
<ellipse cx="50000" cy="47000" rx="275" ry="275"  /> 
</g>
<g style="fill:#FFFFFF; fill-opacity:1.0; 
  stroke:#808000; stroke-linecap:round; stroke-linejoin:round; stroke-opacity:1.0; stroke-opacity:1.0; stroke-width:0" 
   transform="translate(0 0) scale(1 1)">
<ellipse cx="50000" cy="47000" rx="160" ry="160"  /> 
</g>
<g style="fill:#000000; fill-opacity:1.0; 
  stroke:#000000; stroke-linecap:round; stroke-linejoin:round; stroke-opacity:1.0; stroke-opacity:1.0; stroke-width:0" 
   transform="translate(0 0) scale(1 1)">
<ellipse cx="49000" cy="47000" rx="275" ry="275"  /> 
</g>
<g style="fill:#FFFFFF; fill-opacity:1.0; 
  stroke:#808000; stroke-linecap:round; stroke-linejoin:round; stroke-opacity:1.0; stroke-opacity:1.0; stroke-width:0" 
   transform="translate(0 0) scale(1 1)">
<ellipse cx="49000" cy="47000" rx="160" ry="160"  /> 
</g>
<g style="fill:#000000; fill-opacity:1.0; 
  stroke:#000000; stroke-linecap:round; stroke-linejoin:round; stroke-opacity:1.0; stroke-opacity:1.0; stroke-width:0" 
   transform="translate(0 0) scale(1 1)">
<ellipse cx="48000" cy="47000" rx="275" ry="275"  /> 
</g>
<g style="fill:#FFFFFF; fill-opacity:1.0; 
  stroke:#808000; stroke-linecap:round; stroke-linejoin:round; stroke-opacity:1.0; stroke-opacity:1.0; stroke-width:0" 
   transform="translate(0 0) scale(1 1)">
<ellipse cx="48000" cy="47000" rx="160" ry="160"  /> 
</g>
<g style="fill:#000000; fill-opacity:1.0; 
  stroke:#000000; stroke-linecap:round; stroke-linejoin:round; stroke-opacity:1.0; stroke-opacity:1.0; stroke-width:0" 
   transform="translate(0 0) scale(1 1)">
<ellipse cx="47000" cy="47000" rx="275" ry="275"  /> 
</g>
<g style="fill:#FFFFFF; fill-opacity:1.0; 
  stroke:#808000; stroke-linecap:round; stroke-linejoin:round; stroke-opacity:1.0; stroke-opacity:1.0; stroke-width:0" 
   transform="translate(0 0) scale(1 1)">
<ellipse cx="47000" cy="47000" rx="160" ry="160"  /> 
</g>
<g style="fill:#000000; fill-opacity:1.0; 
  stroke:#000000; stroke-linecap:round; stroke-linejoin:round; stroke-opacity:1.0; stroke-opacity:1.0; stroke-width:0" 
   transform="translate(0 0) scale(1 1)">
<ellipse cx="46000" cy="47000" rx="275" ry="275"  /> 
</g>
<g style="fill:#FFFFFF; fill-opacity:1.0; 
  stroke:#808000; stroke-linecap:round; stroke-linejoin:round; stroke-opacity:1.0; stroke-opacity:1.0; stroke-width:0" 
   transform="translate(0 0) scale(1 1)">
<ellipse cx="46000" cy="47000" rx="160" ry="160"  /> 
</g>
<g style="fill:#000000; fill-opacity:1.0; 
  stroke:#000000; stroke-linecap:round; stroke-linejoin:round; stroke-opacity:1.0; stroke-opacity:1.0; stroke-width:0" 
   transform="translate(0 0) scale(1 1)">
<ellipse cx="45000" cy="47000" rx="275" ry="275"  /> 
</g>
<g style="fill:#FFFFFF; fill-opacity:1.0; 
  stroke:#808000; stroke-linecap:round; stroke-linejoin:round; stroke-opacity:1.0; stroke-opacity:1.0; stroke-width:0" 
   transform="translate(0 0) scale(1 1)">
<ellipse cx="45000" cy="47000" rx="160" ry="160"  /> 
</g>
<g style="fill:#000000; fill-opacity:1.0; 
  stroke:#000000; stroke-linecap:round; stroke-linejoin:round; stroke-opacity:1.0; stroke-opacity:1.0; stroke-width:0" 
   transform="translate(0 0) scale(1 1)">
<ellipse cx="44000" cy="47000" rx="275" ry="275"  /> 
</g>
<g style="fill:#FFFFFF; fill-opacity:1.0; 
  stroke:#808000; stroke-linecap:round; stroke-linejoin:round; stroke-opacity:1.0; stroke-opacity:1.0; stroke-width:0" 
   transform="translate(0 0) scale(1 1)">
<ellipse cx="44000" cy="47000" rx="160" ry="160"  /> 
</g>
<g style="fill:#000000; fill-opacity:1.0; 
  stroke:#000000; stroke-linecap:round; stroke-linejoin:round; stroke-opacity:1.0; stroke-opacity:1.0; stroke-width:0" 
   transform="translate(0 0) scale(1 1)">
<ellipse cx="43000" cy="47000" rx="275" ry="275"  /> 
</g>
<g style="fill:#FFFFFF; fill-opacity:1.0; 
  stroke:#808000; stroke-linecap:round; stroke-linejoin:round; stroke-opacity:1.0; stroke-opacity:1.0; stroke-width:0" 
   transform="translate(0 0) scale(1 1)">
<ellipse cx="43000" cy="47000" rx="160" ry="160"  /> 
</g>
<g style="fill:#000000; fill-opacity:1.0; 
  stroke:#000000; stroke-linecap:round; stroke-linejoin:round; stroke-opacity:1.0; stroke-opacity:1.0; stroke-width:0" 
   transform="translate(0 0) scale(1 1)">
<ellipse cx="42000" cy="47000" rx="275" ry="275"  /> 
</g>
<g style="fill:#FFFFFF; fill-opacity:1.0; 
  stroke:#808000; stroke-linecap:round; stroke-linejoin:round; stroke-opacity:1.0; stroke-opacity:1.0; stroke-width:0" 
   transform="translate(0 0) scale(1 1)">
<ellipse cx="42000" cy="47000" rx="160" ry="160"  /> 
</g>
<g style="fill:#000000; fill-opacity:1.0; 
  stroke:#000000; stroke-linecap:round; stroke-linejoin:round; stroke-opacity:1.0; stroke-opacity:1.0; stroke-width:0" 
   transform="translate(0 0) scale(1 1)">
<ellipse cx="41000" cy="47000" rx="275" ry="275"  /> 
</g>
<g style="fill:#FFFFFF; fill-opacity:1.0; 
  stroke:#808000; stroke-linecap:round; stroke-linejoin:round; stroke-opacity:1.0; stroke-opacity:1.0; stroke-width:0" 
   transform="translate(0 0) scale(1 1)">
<ellipse cx="41000" cy="47000" rx="160" ry="160"  /> 
</g>
<g style="fill:#000000; fill-opacity:1.0; 
  stroke:#000000; stroke-linecap:round; stroke-linejoin:round; stroke-opacity:1.0; stroke-opacity:1.0; stroke-width:0" 
   transform="translate(0 0) scale(1 1)">
<ellipse cx="40000" cy="47000" rx="275" ry="275"  /> 
</g>
<g style="fill:#FFFFFF; fill-opacity:1.0; 
  stroke:#808000; stroke-linecap:round; stroke-linejoin:round; stroke-opacity:1.0; stroke-opacity:1.0; stroke-width:0" 
   transform="translate(0 0) scale(1 1)">
<ellipse cx="40000" cy="47000" rx="160" ry="160"  /> 
</g>
<g style="fill:#000000; fill-opacity:1.0; 
  stroke:#000000; stroke-linecap:round; stroke-linejoin:round; stroke-opacity:1.0; stroke-opacity:1.0; stroke-width:0" 
   transform="translate(0 0) scale(1 1)">
<ellipse cx="39000" cy="47000" rx="275" ry="275"  /> 
</g>
<g style="fill:#FFFFFF; fill-opacity:1.0; 
  stroke:#808000; stroke-linecap:round; stroke-linejoin:round; stroke-opacity:1.0; stroke-opacity:1.0; stroke-width:0" 
   transform="translate(0 0) scale(1 1)">
<ellipse cx="39000" cy="47000" rx="160" ry="160"  /> 
</g>
<g style="fill:#000000; fill-opacity:1.0; 
  stroke:#000000; stroke-linecap:round; stroke-linejoin:round; stroke-opacity:1.0; stroke-opacity:1.0; stroke-width:0" 
   transform="translate(0 0) scale(1 1)">
<ellipse cx="38000" cy="47000" rx="275" ry="275"  /> 
</g>
<g style="fill:#FFFFFF; fill-opacity:1.0; 
  stroke:#808000; stroke-linecap:round; stroke-linejoin:round; stroke-opacity:1.0; stroke-opacity:1.0; stroke-width:0" 
   transform="translate(0 0) scale(1 1)">
<ellipse cx="38000" cy="47000" rx="160" ry="160"  /> 
</g>
<g style="fill:#000000; fill-opacity:1.0; 
  stroke:#000000; stroke-linecap:round; stroke-linejoin:round; stroke-opacity:1.0; stroke-opacity:1.0; stroke-width:0" 
   transform="translate(0 0) scale(1 1)">
<polygon style="fill-rule:evenodd; " 
points="42725,56275
42725,55725
43275,55725
43275,56275
" /> 
</g>
<g style="fill:#FFFFFF; fill-opacity:1.0; 
  stroke:#808000; stroke-linecap:round; stroke-linejoin:round; stroke-opacity:1.0; stroke-opacity:1.0; stroke-width:0" 
   transform="translate(0 0) scale(1 1)">
<ellipse cx="43000" cy="56000" rx="160" ry="160"  /> 
</g>
<g style="fill:#000000; fill-opacity:1.0; 
  stroke:#000000; stroke-linecap:round; stroke-linejoin:round; stroke-opacity:1.0; stroke-opacity:1.0; stroke-width:0" 
   transform="translate(0 0) scale(1 1)">
<ellipse cx="44000" cy="56000" rx="275" ry="275"  /> 
</g>
<g style="fill:#FFFFFF; fill-opacity:1.0; 
  stroke:#808000; stroke-linecap:round; stroke-linejoin:round; stroke-opacity:1.0; stroke-opacity:1.0; stroke-width:0" 
   transform="translate(0 0) scale(1 1)">
<ellipse cx="44000" cy="56000" rx="160" ry="160"  /> 
</g>
<g style="fill:#000000; fill-opacity:1.0; 
  stroke:#000000; stroke-linecap:round; stroke-linejoin:round; stroke-opacity:1.0; stroke-opacity:1.0; stroke-width:0" 
   transform="translate(0 0) scale(1 1)">
<ellipse cx="45000" cy="56000" rx="275" ry="275"  /> 
</g>
<g style="fill:#FFFFFF; fill-opacity:1.0; 
  stroke:#808000; stroke-linecap:round; stroke-linejoin:round; stroke-opacity:1.0; stroke-opacity:1.0; stroke-width:0" 
   transform="translate(0 0) scale(1 1)">
<ellipse cx="45000" cy="56000" rx="160" ry="160"  /> 
</g>
<g style="fill:#000000; fill-opacity:1.0; 
  stroke:#000000; stroke-linecap:round; stroke-linejoin:round; stroke-opacity:1.0; stroke-opacity:1.0; stroke-width:0" 
   transform="translate(0 0) scale(1 1)">
<ellipse cx="46000" cy="56000" rx="275" ry="275"  /> 
</g>
<g style="fill:#FFFFFF; fill-opacity:1.0; 
  stroke:#808000; stroke-linecap:round; stroke-linejoin:round; stroke-opacity:1.0; stroke-opacity:1.0; stroke-width:0" 
   transform="translate(0 0) scale(1 1)">
<ellipse cx="46000" cy="56000" rx="160" ry="160"  /> 
</g>
<g style="fill:#000000; fill-opacity:1.0; 
  stroke:#000000; stroke-linecap:round; stroke-linejoin:round; stroke-opacity:1.0; stroke-opacity:1.0; stroke-width:0" 
   transform="translate(0 0) scale(1 1)">
<ellipse cx="47000" cy="56000" rx="275" ry="275"  /> 
</g>
<g style="fill:#FFFFFF; fill-opacity:1.0; 
  stroke:#808000; stroke-linecap:round; stroke-linejoin:round; stroke-opacity:1.0; stroke-opacity:1.0; stroke-width:0" 
   transform="translate(0 0) scale(1 1)">
<ellipse cx="47000" cy="56000" rx="160" ry="160"  /> 
</g>
<g style="fill:#000000; fill-opacity:1.0; 
  stroke:#000000; stroke-linecap:round; stroke-linejoin:round; stroke-opacity:1.0; stroke-opacity:1.0; stroke-width:0" 
   transform="translate(0 0) scale(1 1)">
<ellipse cx="48000" cy="56000" rx="275" ry="275"  /> 
</g>
<g style="fill:#FFFFFF; fill-opacity:1.0; 
  stroke:#808000; stroke-linecap:round; stroke-linejoin:round; stroke-opacity:1.0; stroke-opacity:1.0; stroke-width:0" 
   transform="translate(0 0) scale(1 1)">
<ellipse cx="48000" cy="56000" rx="160" ry="160"  /> 
</g>
<g style="fill:#000000; fill-opacity:1.0; 
  stroke:#000000; stroke-linecap:round; stroke-linejoin:round; stroke-opacity:1.0; stroke-opacity:1.0; stroke-width:0" 
   transform="translate(0 0) scale(1 1)">
<ellipse cx="49000" cy="56000" rx="275" ry="275"  /> 
</g>
<g style="fill:#FFFFFF; fill-opacity:1.0; 
  stroke:#808000; stroke-linecap:round; stroke-linejoin:round; stroke-opacity:1.0; stroke-opacity:1.0; stroke-width:0" 
   transform="translate(0 0) scale(1 1)">
<ellipse cx="49000" cy="56000" rx="160" ry="160"  /> 
</g>
<g style="fill:#000000; fill-opacity:1.0; 
  stroke:#000000; stroke-linecap:round; stroke-linejoin:round; stroke-opacity:1.0; stroke-opacity:1.0; stroke-width:0" 
   transform="translate(0 0) scale(1 1)">
<ellipse cx="50000" cy="56000" rx="275" ry="275"  /> 
</g>
<g style="fill:#FFFFFF; fill-opacity:1.0; 
  stroke:#808000; stroke-linecap:round; stroke-linejoin:round; stroke-opacity:1.0; stroke-opacity:1.0; stroke-width:0" 
   transform="translate(0 0) scale(1 1)">
<ellipse cx="50000" cy="56000" rx="160" ry="160"  /> 
</g>
<g style="fill:#000000; fill-opacity:1.0; 
  stroke:#000000; stroke-linecap:round; stroke-linejoin:round; stroke-opacity:1.0; stroke-opacity:1.0; stroke-width:0" 
   transform="translate(0 0) scale(1 1)">
<ellipse cx="51000" cy="56000" rx="275" ry="275"  /> 
</g>
<g style="fill:#FFFFFF; fill-opacity:1.0; 
  stroke:#808000; stroke-linecap:round; stroke-linejoin:round; stroke-opacity:1.0; stroke-opacity:1.0; stroke-width:0" 
   transform="translate(0 0) scale(1 1)">
<ellipse cx="51000" cy="56000" rx="160" ry="160"  /> 
</g>
<g style="fill:#000000; fill-opacity:1.0; 
  stroke:#000000; stroke-linecap:round; stroke-linejoin:round; stroke-opacity:1.0; stroke-opacity:1.0; stroke-width:0" 
   transform="translate(0 0) scale(1 1)">
<ellipse cx="52000" cy="56000" rx="275" ry="275"  /> 
</g>
<g style="fill:#FFFFFF; fill-opacity:1.0; 
  stroke:#808000; stroke-linecap:round; stroke-linejoin:round; stroke-opacity:1.0; stroke-opacity:1.0; stroke-width:0" 
   transform="translate(0 0) scale(1 1)">
<ellipse cx="52000" cy="56000" rx="160" ry="160"  /> 
</g>
<g style="fill:#000000; fill-opacity:1.0; 
  stroke:#000000; stroke-linecap:round; stroke-linejoin:round; stroke-opacity:1.0; stroke-opacity:1.0; stroke-width:0" 
   transform="translate(0 0) scale(1 1)">
<ellipse cx="53000" cy="56000" rx="275" ry="275"  /> 
</g>
<g style="fill:#FFFFFF; fill-opacity:1.0; 
  stroke:#808000; stroke-linecap:round; stroke-linejoin:round; stroke-opacity:1.0; stroke-opacity:1.0; stroke-width:0" 
   transform="translate(0 0) scale(1 1)">
<ellipse cx="53000" cy="56000" rx="160" ry="160"  /> 
</g>
<g style="fill:#000000; fill-opacity:1.0; 
  stroke:#000000; stroke-linecap:round; stroke-linejoin:round; stroke-opacity:1.0; stroke-opacity:1.0; stroke-width:0" 
   transform="translate(0 0) scale(1 1)">
<ellipse cx="54000" cy="56000" rx="275" ry="275"  /> 
</g>
<g style="fill:#FFFFFF; fill-opacity:1.0; 
  stroke:#808000; stroke-linecap:round; stroke-linejoin:round; stroke-opacity:1.0; stroke-opacity:1.0; stroke-width:0" 
   transform="translate(0 0) scale(1 1)">
<ellipse cx="54000" cy="56000" rx="160" ry="160"  /> 
</g>
<g style="fill:#000000; fill-opacity:1.0; 
  stroke:#000000; stroke-linecap:round; stroke-linejoin:round; stroke-opacity:1.0; stroke-opacity:1.0; stroke-width:0" 
   transform="translate(0 0) scale(1 1)">
<ellipse cx="55000" cy="56000" rx="275" ry="275"  /> 
</g>
<g style="fill:#FFFFFF; fill-opacity:1.0; 
  stroke:#808000; stroke-linecap:round; stroke-linejoin:round; stroke-opacity:1.0; stroke-opacity:1.0; stroke-width:0" 
   transform="translate(0 0) scale(1 1)">
<ellipse cx="55000" cy="56000" rx="160" ry="160"  /> 
</g>
<g style="fill:#000000; fill-opacity:1.0; 
  stroke:#000000; stroke-linecap:round; stroke-linejoin:round; stroke-opacity:1.0; stroke-opacity:1.0; stroke-width:0" 
   transform="translate(0 0) scale(1 1)">
<ellipse cx="56000" cy="56000" rx="275" ry="275"  /> 
</g>
<g style="fill:#FFFFFF; fill-opacity:1.0; 
  stroke:#808000; stroke-linecap:round; stroke-linejoin:round; stroke-opacity:1.0; stroke-opacity:1.0; stroke-width:0" 
   transform="translate(0 0) scale(1 1)">
<ellipse cx="56000" cy="56000" rx="160" ry="160"  /> 
</g>
<g style="fill:#000000; fill-opacity:1.0; 
  stroke:#000000; stroke-linecap:round; stroke-linejoin:round; stroke-opacity:1.0; stroke-opacity:1.0; stroke-width:0" 
   transform="translate(0 0) scale(1 1)">
<polygon style="fill-rule:evenodd; " 
points="42725,59275
42725,58725
43275,58725
43275,59275
" /> 
</g>
<g style="fill:#FFFFFF; fill-opacity:1.0; 
  stroke:#808000; stroke-linecap:round; stroke-linejoin:round; stroke-opacity:1.0; stroke-opacity:1.0; stroke-width:0" 
   transform="translate(0 0) scale(1 1)">
<ellipse cx="43000" cy="59000" rx="160" ry="160"  /> 
</g>
<g style="fill:#000000; fill-opacity:1.0; 
  stroke:#000000; stroke-linecap:round; stroke-linejoin:round; stroke-opacity:1.0; stroke-opacity:1.0; stroke-width:0" 
   transform="translate(0 0) scale(1 1)">
<ellipse cx="44000" cy="59000" rx="275" ry="275"  /> 
</g>
<g style="fill:#FFFFFF; fill-opacity:1.0; 
  stroke:#808000; stroke-linecap:round; stroke-linejoin:round; stroke-opacity:1.0; stroke-opacity:1.0; stroke-width:0" 
   transform="translate(0 0) scale(1 1)">
<ellipse cx="44000" cy="59000" rx="160" ry="160"  /> 
</g>
<g style="fill:#000000; fill-opacity:1.0; 
  stroke:#000000; stroke-linecap:round; stroke-linejoin:round; stroke-opacity:1.0; stroke-opacity:1.0; stroke-width:0" 
   transform="translate(0 0) scale(1 1)">
<ellipse cx="45000" cy="59000" rx="275" ry="275"  /> 
</g>
<g style="fill:#FFFFFF; fill-opacity:1.0; 
  stroke:#808000; stroke-linecap:round; stroke-linejoin:round; stroke-opacity:1.0; stroke-opacity:1.0; stroke-width:0" 
   transform="translate(0 0) scale(1 1)">
<ellipse cx="45000" cy="59000" rx="160" ry="160"  /> 
</g>
<g style="fill:#000000; fill-opacity:1.0; 
  stroke:#000000; stroke-linecap:round; stroke-linejoin:round; stroke-opacity:1.0; stroke-opacity:1.0; stroke-width:0" 
   transform="translate(0 0) scale(1 1)">
<ellipse cx="46000" cy="59000" rx="275" ry="275"  /> 
</g>
<g style="fill:#FFFFFF; fill-opacity:1.0; 
  stroke:#808000; stroke-linecap:round; stroke-linejoin:round; stroke-opacity:1.0; stroke-opacity:1.0; stroke-width:0" 
   transform="translate(0 0) scale(1 1)">
<ellipse cx="46000" cy="59000" rx="160" ry="160"  /> 
</g>
<g style="fill:#000000; fill-opacity:1.0; 
  stroke:#000000; stroke-linecap:round; stroke-linejoin:round; stroke-opacity:1.0; stroke-opacity:1.0; stroke-width:0" 
   transform="translate(0 0) scale(1 1)">
<ellipse cx="47000" cy="59000" rx="275" ry="275"  /> 
</g>
<g style="fill:#FFFFFF; fill-opacity:1.0; 
  stroke:#808000; stroke-linecap:round; stroke-linejoin:round; stroke-opacity:1.0; stroke-opacity:1.0; stroke-width:0" 
   transform="translate(0 0) scale(1 1)">
<ellipse cx="47000" cy="59000" rx="160" ry="160"  /> 
</g>
<g style="fill:#000000; fill-opacity:1.0; 
  stroke:#000000; stroke-linecap:round; stroke-linejoin:round; stroke-opacity:1.0; stroke-opacity:1.0; stroke-width:0" 
   transform="translate(0 0) scale(1 1)">
<ellipse cx="48000" cy="59000" rx="275" ry="275"  /> 
</g>
<g style="fill:#FFFFFF; fill-opacity:1.0; 
  stroke:#808000; stroke-linecap:round; stroke-linejoin:round; stroke-opacity:1.0; stroke-opacity:1.0; stroke-width:0" 
   transform="translate(0 0) scale(1 1)">
<ellipse cx="48000" cy="59000" rx="160" ry="160"  /> 
</g>
<g style="fill:#000000; fill-opacity:1.0; 
  stroke:#000000; stroke-linecap:round; stroke-linejoin:round; stroke-opacity:1.0; stroke-opacity:1.0; stroke-width:0" 
   transform="translate(0 0) scale(1 1)">
<ellipse cx="49000" cy="59000" rx="275" ry="275"  /> 
</g>
<g style="fill:#FFFFFF; fill-opacity:1.0; 
  stroke:#808000; stroke-linecap:round; stroke-linejoin:round; stroke-opacity:1.0; stroke-opacity:1.0; stroke-width:0" 
   transform="translate(0 0) scale(1 1)">
<ellipse cx="49000" cy="59000" rx="160" ry="160"  /> 
</g>
<g style="fill:#000000; fill-opacity:1.0; 
  stroke:#000000; stroke-linecap:round; stroke-linejoin:round; stroke-opacity:1.0; stroke-opacity:1.0; stroke-width:0" 
   transform="translate(0 0) scale(1 1)">
<ellipse cx="50000" cy="59000" rx="275" ry="275"  /> 
</g>
<g style="fill:#FFFFFF; fill-opacity:1.0; 
  stroke:#808000; stroke-linecap:round; stroke-linejoin:round; stroke-opacity:1.0; stroke-opacity:1.0; stroke-width:0" 
   transform="translate(0 0) scale(1 1)">
<ellipse cx="50000" cy="59000" rx="160" ry="160"  /> 
</g>
<g style="fill:#000000; fill-opacity:1.0; 
  stroke:#000000; stroke-linecap:round; stroke-linejoin:round; stroke-opacity:1.0; stroke-opacity:1.0; stroke-width:0" 
   transform="translate(0 0) scale(1 1)">
<ellipse cx="51000" cy="59000" rx="275" ry="275"  /> 
</g>
<g style="fill:#FFFFFF; fill-opacity:1.0; 
  stroke:#808000; stroke-linecap:round; stroke-linejoin:round; stroke-opacity:1.0; stroke-opacity:1.0; stroke-width:0" 
   transform="translate(0 0) scale(1 1)">
<ellipse cx="51000" cy="59000" rx="160" ry="160"  /> 
</g>
<g style="fill:#000000; fill-opacity:1.0; 
  stroke:#000000; stroke-linecap:round; stroke-linejoin:round; stroke-opacity:1.0; stroke-opacity:1.0; stroke-width:0" 
   transform="translate(0 0) scale(1 1)">
<ellipse cx="52000" cy="59000" rx="275" ry="275"  /> 
</g>
<g style="fill:#FFFFFF; fill-opacity:1.0; 
  stroke:#808000; stroke-linecap:round; stroke-linejoin:round; stroke-opacity:1.0; stroke-opacity:1.0; stroke-width:0" 
   transform="translate(0 0) scale(1 1)">
<ellipse cx="52000" cy="59000" rx="160" ry="160"  /> 
</g>
<g style="fill:#000000; fill-opacity:1.0; 
  stroke:#000000; stroke-linecap:round; stroke-linejoin:round; stroke-opacity:1.0; stroke-opacity:1.0; stroke-width:0" 
   transform="translate(0 0) scale(1 1)">
<ellipse cx="53000" cy="59000" rx="275" ry="275"  /> 
</g>
<g style="fill:#FFFFFF; fill-opacity:1.0; 
  stroke:#808000; stroke-linecap:round; stroke-linejoin:round; stroke-opacity:1.0; stroke-opacity:1.0; stroke-width:0" 
   transform="translate(0 0) scale(1 1)">
<ellipse cx="53000" cy="59000" rx="160" ry="160"  /> 
</g>
<g style="fill:#000000; fill-opacity:1.0; 
  stroke:#000000; stroke-linecap:round; stroke-linejoin:round; stroke-opacity:1.0; stroke-opacity:1.0; stroke-width:0" 
   transform="translate(0 0) scale(1 1)">
<ellipse cx="54000" cy="59000" rx="275" ry="275"  /> 
</g>
<g style="fill:#FFFFFF; fill-opacity:1.0; 
  stroke:#808000; stroke-linecap:round; stroke-linejoin:round; stroke-opacity:1.0; stroke-opacity:1.0; stroke-width:0" 
   transform="translate(0 0) scale(1 1)">
<ellipse cx="54000" cy="59000" rx="160" ry="160"  /> 
</g>
<g style="fill:#000000; fill-opacity:1.0; 
  stroke:#000000; stroke-linecap:round; stroke-linejoin:round; stroke-opacity:1.0; stroke-opacity:1.0; stroke-width:0" 
   transform="translate(0 0) scale(1 1)">
<ellipse cx="55000" cy="59000" rx="275" ry="275"  /> 
</g>
<g style="fill:#FFFFFF; fill-opacity:1.0; 
  stroke:#808000; stroke-linecap:round; stroke-linejoin:round; stroke-opacity:1.0; stroke-opacity:1.0; stroke-width:0" 
   transform="translate(0 0) scale(1 1)">
<ellipse cx="55000" cy="59000" rx="160" ry="160"  /> 
</g>
<g style="fill:#000000; fill-opacity:1.0; 
  stroke:#000000; stroke-linecap:round; stroke-linejoin:round; stroke-opacity:1.0; stroke-opacity:1.0; stroke-width:0" 
   transform="translate(0 0) scale(1 1)">
<ellipse cx="56000" cy="59000" rx="275" ry="275"  /> 
</g>
<g style="fill:#FFFFFF; fill-opacity:1.0; 
  stroke:#808000; stroke-linecap:round; stroke-linejoin:round; stroke-opacity:1.0; stroke-opacity:1.0; stroke-width:0" 
   transform="translate(0 0) scale(1 1)">
<ellipse cx="56000" cy="59000" rx="160" ry="160"  /> 
</g>
<g style="fill:#000000; fill-opacity:1.0; 
  stroke:#000000; stroke-linecap:round; stroke-linejoin:round; stroke-opacity:1.0; stroke-opacity:1.0; stroke-width:0" 
   transform="translate(0 0) scale(1 1)">
<ellipse cx="45000" cy="52500" rx="275" ry="275"  /> 
</g>
<g style="fill:#FFFFFF; fill-opacity:1.0; 
  stroke:#808000; stroke-linecap:round; stroke-linejoin:round; stroke-opacity:1.0; stroke-opacity:1.0; stroke-width:0" 
   transform="translate(0 0) scale(1 1)">
<ellipse cx="45000" cy="52500" rx="160" ry="160"  /> 
</g>
<g style="fill:#000000; fill-opacity:1.0; 
  stroke:#000000; stroke-linecap:round; stroke-linejoin:round; stroke-opacity:1.0; stroke-opacity:1.0; stroke-width:0" 
   transform="translate(0 0) scale(1 1)">
<ellipse cx="45000" cy="51500" rx="275" ry="275"  /> 
</g>
<g style="fill:#FFFFFF; fill-opacity:1.0; 
  stroke:#808000; stroke-linecap:round; stroke-linejoin:round; stroke-opacity:1.0; stroke-opacity:1.0; stroke-width:0" 
   transform="translate(0 0) scale(1 1)">
<ellipse cx="45000" cy="51500" rx="160" ry="160"  /> 
</g>
<g style="fill:#000000; fill-opacity:1.0; 
  stroke:#000000; stroke-linecap:round; stroke-linejoin:round; stroke-opacity:1.0; stroke-opacity:1.0; stroke-width:0" 
   transform="translate(0 0) scale(1 1)">
<ellipse cx="47000" cy="52500" rx="275" ry="275"  /> 
</g>
<g style="fill:#FFFFFF; fill-opacity:1.0; 
  stroke:#808000; stroke-linecap:round; stroke-linejoin:round; stroke-opacity:1.0; stroke-opacity:1.0; stroke-width:0" 
   transform="translate(0 0) scale(1 1)">
<ellipse cx="47000" cy="52500" rx="160" ry="160"  /> 
</g>
<g style="fill:#000000; fill-opacity:1.0; 
  stroke:#000000; stroke-linecap:round; stroke-linejoin:round; stroke-opacity:1.0; stroke-opacity:1.0; stroke-width:0" 
   transform="translate(0 0) scale(1 1)">
<ellipse cx="47000" cy="51500" rx="275" ry="275"  /> 
</g>
<g style="fill:#FFFFFF; fill-opacity:1.0; 
  stroke:#808000; stroke-linecap:round; stroke-linejoin:round; stroke-opacity:1.0; stroke-opacity:1.0; stroke-width:0" 
   transform="translate(0 0) scale(1 1)">
<ellipse cx="47000" cy="51500" rx="160" ry="160"  /> 
</g>
<g style="fill:#000000; fill-opacity:1.0; 
  stroke:#000000; stroke-linecap:round; stroke-linejoin:round; stroke-opacity:1.0; stroke-opacity:1.0; stroke-width:0" 
   transform="translate(0 0) scale(1 1)">
<polygon style="fill-rule:evenodd; " 
points="47300,44300
46700,44300
46700,43700
47300,43700
" /> 
</g>
<g style="fill:#FFFFFF; fill-opacity:1.0; 
  stroke:#808000; stroke-linecap:round; stroke-linejoin:round; stroke-opacity:1.0; stroke-opacity:1.0; stroke-width:0" 
   transform="translate(0 0) scale(1 1)">
<ellipse cx="47000" cy="44000" rx="200" ry="200"  /> 
</g>
<g style="fill:#000000; fill-opacity:1.0; 
  stroke:#000000; stroke-linecap:round; stroke-linejoin:round; stroke-opacity:1.0; stroke-opacity:1.0; stroke-width:0" 
   transform="translate(0 0) scale(1 1)">
<ellipse cx="46000" cy="44000" rx="300" ry="300"  /> 
</g>
<g style="fill:#FFFFFF; fill-opacity:1.0; 
  stroke:#808000; stroke-linecap:round; stroke-linejoin:round; stroke-opacity:1.0; stroke-opacity:1.0; stroke-width:0" 
   transform="translate(0 0) scale(1 1)">
<ellipse cx="46000" cy="44000" rx="200" ry="200"  /> 
</g>
<g style="fill:#000000; fill-opacity:1.0; 
  stroke:#000000; stroke-linecap:round; stroke-linejoin:round; stroke-opacity:1.0; stroke-opacity:1.0; stroke-width:0" 
   transform="translate(0 0) scale(1 1)">
<ellipse cx="47000" cy="43000" rx="300" ry="300"  /> 
</g>
<g style="fill:#FFFFFF; fill-opacity:1.0; 
  stroke:#808000; stroke-linecap:round; stroke-linejoin:round; stroke-opacity:1.0; stroke-opacity:1.0; stroke-width:0" 
   transform="translate(0 0) scale(1 1)">
<ellipse cx="47000" cy="43000" rx="200" ry="200"  /> 
</g>
<g style="fill:#000000; fill-opacity:1.0; 
  stroke:#000000; stroke-linecap:round; stroke-linejoin:round; stroke-opacity:1.0; stroke-opacity:1.0; stroke-width:0" 
   transform="translate(0 0) scale(1 1)">
<ellipse cx="46000" cy="43000" rx="300" ry="300"  /> 
</g>
<g style="fill:#FFFFFF; fill-opacity:1.0; 
  stroke:#808000; stroke-linecap:round; stroke-linejoin:round; stroke-opacity:1.0; stroke-opacity:1.0; stroke-width:0" 
   transform="translate(0 0) scale(1 1)">
<ellipse cx="46000" cy="43000" rx="200" ry="200"  /> 
</g>
<g style="fill:#000000; fill-opacity:1.0; 
  stroke:#000000; stroke-linecap:round; stroke-linejoin:round; stroke-opacity:1.0; stroke-opacity:1.0; stroke-width:0" 
   transform="translate(0 0) scale(1 1)">
<ellipse cx="47000" cy="42000" rx="300" ry="300"  /> 
</g>
<g style="fill:#FFFFFF; fill-opacity:1.0; 
  stroke:#808000; stroke-linecap:round; stroke-linejoin:round; stroke-opacity:1.0; stroke-opacity:1.0; stroke-width:0" 
   transform="translate(0 0) scale(1 1)">
<ellipse cx="47000" cy="42000" rx="200" ry="200"  /> 
</g>
<g style="fill:#000000; fill-opacity:1.0; 
  stroke:#000000; stroke-linecap:round; stroke-linejoin:round; stroke-opacity:1.0; stroke-opacity:1.0; stroke-width:0" 
   transform="translate(0 0) scale(1 1)">
<ellipse cx="46000" cy="42000" rx="300" ry="300"  /> 
</g>
<g style="fill:#FFFFFF; fill-opacity:1.0; 
  stroke:#808000; stroke-linecap:round; stroke-linejoin:round; stroke-opacity:1.0; stroke-opacity:1.0; stroke-width:0" 
   transform="translate(0 0) scale(1 1)">
<ellipse cx="46000" cy="42000" rx="200" ry="200"  /> 
</g>
<g style="fill:#000000; fill-opacity:1.0; 
  stroke:#000000; stroke-linecap:round; stroke-linejoin:round; stroke-opacity:1.0; stroke-opacity:1.0; stroke-width:0" 
   transform="translate(0 0) scale(1 1)">
<ellipse cx="45000" cy="42000" rx="275" ry="275"  /> 
</g>
<g style="fill:#FFFFFF; fill-opacity:1.0; 
  stroke:#808000; stroke-linecap:round; stroke-linejoin:round; stroke-opacity:1.0; stroke-opacity:1.0; stroke-width:0" 
   transform="translate(0 0) scale(1 1)">
<ellipse cx="45000" cy="42000" rx="160" ry="160"  /> 
</g>
<g style="fill:#000000; fill-opacity:1.0; 
  stroke:#000000; stroke-linecap:round; stroke-linejoin:round; stroke-opacity:1.0; stroke-opacity:1.0; stroke-width:0" 
   transform="translate(0 0) scale(1 1)">
<ellipse cx="45000" cy="45000" rx="275" ry="275"  /> 
</g>
<g style="fill:#FFFFFF; fill-opacity:1.0; 
  stroke:#808000; stroke-linecap:round; stroke-linejoin:round; stroke-opacity:1.0; stroke-opacity:1.0; stroke-width:0" 
   transform="translate(0 0) scale(1 1)">
<ellipse cx="45000" cy="45000" rx="160" ry="160"  /> 
</g>
<g style="fill:#000000; fill-opacity:1.0; 
  stroke:#000000; stroke-linecap:round; stroke-linejoin:round; stroke-opacity:1.0; stroke-opacity:1.0; stroke-width:0" 
   transform="translate(0 0) scale(1 1)">
<ellipse cx="45000" cy="53500" rx="275" ry="275"  /> 
</g>
<g style="fill:#FFFFFF; fill-opacity:1.0; 
  stroke:#808000; stroke-linecap:round; stroke-linejoin:round; stroke-opacity:1.0; stroke-opacity:1.0; stroke-width:0" 
   transform="translate(0 0) scale(1 1)">
<ellipse cx="45000" cy="53500" rx="160" ry="160"  /> 
</g>
<g style="fill:#000000; fill-opacity:1.0; 
  stroke:#000000; stroke-linecap:round; stroke-linejoin:round; stroke-opacity:1.0; stroke-opacity:1.0; stroke-width:0" 
   transform="translate(0 0) scale(1 1)">
<ellipse cx="47000" cy="53500" rx="275" ry="275"  /> 
</g>
<g style="fill:#FFFFFF; fill-opacity:1.0; 
  stroke:#808000; stroke-linecap:round; stroke-linejoin:round; stroke-opacity:1.0; stroke-opacity:1.0; stroke-width:0" 
   transform="translate(0 0) scale(1 1)">
<ellipse cx="47000" cy="53500" rx="160" ry="160"  /> 
</g>
<g style="fill:#FFFFFF; fill-opacity:1.0; 
  stroke:#FFFFFF; stroke-linecap:round; stroke-linejoin:round; stroke-opacity:1.0; stroke-opacity:1.0; stroke-width:0" 
   transform="translate(0 0) scale(1 1)">
<ellipse cx="43000" cy="53000" rx="157" ry="157"  /> 
<ellipse cx="38500" cy="53000" rx="157" ry="157"  /> 
<ellipse cx="46000" cy="45500" rx="157" ry="157"  /> 
<ellipse cx="41500" cy="45500" rx="157" ry="157"  /> 
</g> 
</svg> 
